<?xml version="1.0" encoding="UTF-8" standalone="no"?>
<!-- Created with Inkscape (http://www.inkscape.org/) -->

<svg
   inkscape:export-ydpi="96"
   inkscape:export-xdpi="96"
   inkscape:export-filename="do-disturb.png"
   xml:space="preserve"
   sodipodi:docname="do-disturb.svg"
   inkscape:version="1.2.2 (b0a8486, 2022-12-01)"
   id="svg5"
   version="1.1"
   viewBox="0 0 140 69.999999"
   height="7cm"
   width="14cm"
   xmlns:inkscape="http://www.inkscape.org/namespaces/inkscape"
   xmlns:sodipodi="http://sodipodi.sourceforge.net/DTD/sodipodi-0.dtd"
   xmlns:xlink="http://www.w3.org/1999/xlink"
   xmlns="http://www.w3.org/2000/svg"
   xmlns:svg="http://www.w3.org/2000/svg"
   xmlns:rdf="http://www.w3.org/1999/02/22-rdf-syntax-ns#"
   xmlns:cc="http://creativecommons.org/ns#"
   xmlns:dc="http://purl.org/dc/elements/1.1/"><metadata
     id="metadata831"><rdf:RDF><cc:Work
         rdf:about=""><dc:format>image/svg+xml</dc:format><dc:type
           rdf:resource="http://purl.org/dc/dcmitype/StillImage" /></cc:Work></rdf:RDF></metadata><sodipodi:namedview
     id="namedview7"
     pagecolor="#ffffff"
     bordercolor="#666666"
     borderopacity="1.0"
     inkscape:showpageshadow="2"
     inkscape:pageopacity="1"
     inkscape:pagecheckerboard="0"
     inkscape:deskcolor="#d1d1d1"
     inkscape:document-units="cm"
     showgrid="true"
     inkscape:zoom="1.6393288"
     inkscape:cx="247.35733"
     inkscape:cy="123.52617"
     inkscape:window-width="1848"
     inkscape:window-height="1016"
     inkscape:window-x="72"
     inkscape:window-y="27"
     inkscape:window-maximized="1"
     inkscape:current-layer="g3838"
     showguides="true"><inkscape:grid
       type="xygrid"
       id="grid182"
       units="cm"
       spacingx="2.5"
       spacingy="2.5"
       empspacing="4"
       originx="0"
       originy="0" /><sodipodi:guide
       position="70.000003,55"
       orientation="1,0"
       id="guide1939"
       inkscape:locked="false" /><sodipodi:guide
       position="72.500002,24.999999"
       orientation="0,-1"
       id="guide1941"
       inkscape:locked="false" /></sodipodi:namedview><defs
     id="defs2"><radialGradient
       id="SVGID_1_"
       cx="48.408501"
       cy="3.6272769"
       gradientTransform="matrix(1.0480675,0,0,1.1364195,77.724345,-154.51454)"
       gradientUnits="userSpaceOnUse"
       r="75.464897"><stop
         offset="0"
         stop-color="#2F7889"
         id="stop1248" /><stop
         offset="1"
         stop-color="#424242"
         id="stop1250" /></radialGradient><linearGradient
       id="SVGID_11_"
       gradientTransform="matrix(1.2637559,0,0,-1.2637559,-237.49365,-514.39411)"
       gradientUnits="userSpaceOnUse"
       x1="110.1296"
       x2="98.873802"
       y1="-52.552898"
       y2="-123.0644"><stop
         offset="0"
         stop-color="#90A4AE"
         id="stop1721" /><stop
         offset="0.2674"
         stop-color="#889DA8"
         id="stop1723" /><stop
         offset="0.5844"
         stop-color="#78909C"
         id="stop1725" /><stop
         offset="1"
         stop-color="#607D8B"
         id="stop1727" /></linearGradient><linearGradient
       id="SVGID_13_"
       gradientTransform="matrix(1.2637559,0,0,-1.2637559,-237.49365,-514.39411)"
       gradientUnits="userSpaceOnUse"
       x1="50.0005"
       x2="50.0005"
       y1="-38.879299"
       y2="1.3377"><stop
         offset="0"
         stop-color="#0068B5"
         id="stop1730" /><stop
         offset="0.807"
         stop-color="#4C8EEA"
         id="stop1732" /><stop
         offset="1"
         stop-color="#5E97F6"
         id="stop1734" /></linearGradient><linearGradient
       id="SVGID_14_"
       gradientTransform="matrix(1.2637559,0,0,-1.2637559,-237.49365,-514.39411)"
       gradientUnits="userSpaceOnUse"
       x1="49.730999"
       x2="49.730999"
       y1="-45.4627"
       y2="-19.7071"><stop
         offset="0"
         stop-color="#0068B5"
         id="stop1737" /><stop
         offset="1"
         stop-color="#5E97F6"
         id="stop1739" /></linearGradient><radialGradient
       id="SVGID_1_-4"
       cx="64.592003"
       cy="167.24333"
       gradientTransform="matrix(1.2637559,0,0,0.62075689,-237.49365,-514.39411)"
       gradientUnits="userSpaceOnUse"
       r="23.419001"><stop
         offset="0.7275"
         stop-color="#6D4C41"
         stop-opacity="0"
         id="stop1742" /><stop
         offset="1"
         stop-color="#6D4C41"
         id="stop1744" /></radialGradient><radialGradient
       id="SVGID_2_"
       cx="-46.061024"
       cy="-146.13144"
       gradientTransform="matrix(-1.1445837,0.53557974,-0.39732485,-0.84911754,-237.49365,-514.39411)"
       gradientUnits="userSpaceOnUse"
       r="6.9208999"><stop
         offset="0.6628"
         stop-color="#6D4C41"
         id="stop1747" /><stop
         offset="1"
         stop-color="#6D4C41"
         stop-opacity="0"
         id="stop1749" /></radialGradient><radialGradient
       id="SVGID_3_"
       cx="-63.687435"
       cy="78.29834"
       gradientTransform="matrix(-0.09427619,-1.2602173,1.0503075,-0.07860562,-237.49365,-514.39411)"
       gradientUnits="userSpaceOnUse"
       r="31.1476"><stop
         offset="0.7247"
         stop-color="#6D4C41"
         stop-opacity="0"
         id="stop1752" /><stop
         offset="1"
         stop-color="#6D4C41"
         id="stop1754" /></radialGradient><radialGradient
       id="SVGID_4_"
       cx="-56.038422"
       cy="-41.464363"
       gradientTransform="matrix(0.09427619,-1.2602173,-1.0503075,-0.07860562,-237.49365,-514.39411)"
       gradientUnits="userSpaceOnUse"
       r="31.4531"><stop
         offset="0.7247"
         stop-color="#6D4C41"
         stop-opacity="0"
         id="stop1757" /><stop
         offset="1"
         stop-color="#6D4C41"
         id="stop1759" /></radialGradient><radialGradient
       id="SVGID_5_"
       cx="-35.448299"
       cy="167.24333"
       gradientTransform="matrix(-1.2637559,0,0,0.62075689,-237.49365,-514.39411)"
       gradientUnits="userSpaceOnUse"
       r="23.419001"><stop
         offset="0.7275"
         stop-color="#6D4C41"
         stop-opacity="0"
         id="stop1762" /><stop
         offset="1"
         stop-color="#6D4C41"
         id="stop1764" /></radialGradient><radialGradient
       id="SVGID_6_"
       cx="44.558735"
       cy="-88.975243"
       gradientTransform="matrix(1.1445837,0.53557974,0.39732485,-0.84911754,-237.49365,-514.39411)"
       gradientUnits="userSpaceOnUse"
       r="6.9208999"><stop
         offset="0.6628"
         stop-color="#6D4C41"
         id="stop1767" /><stop
         offset="1"
         stop-color="#6D4C41"
         stop-opacity="0"
         id="stop1769" /></radialGradient><linearGradient
       id="SVGID_7_"
       gradientTransform="matrix(1.2637559,0,0,-1.2637559,-237.49365,-514.39411)"
       gradientUnits="userSpaceOnUse"
       x1="50.008999"
       x2="50.008999"
       y1="-95.742897"
       y2="-131.1703"><stop
         offset="3.200000e-03"
         stop-color="#303F9F"
         id="stop1772" /><stop
         offset="0.4718"
         stop-color="#273492"
         id="stop1774" /><stop
         offset="1"
         stop-color="#1A237E"
         id="stop1776" /></linearGradient><linearGradient
       id="SVGID_8_"
       gradientTransform="matrix(1.2637559,0,0,-1.2637559,-237.49365,-514.39411)"
       gradientUnits="userSpaceOnUse"
       x1="107.724"
       x2="107.724"
       y1="-107.073"
       y2="-124"><stop
         offset="3.200000e-03"
         stop-color="#303F9F"
         id="stop1779" /><stop
         offset="0.4718"
         stop-color="#273492"
         id="stop1781" /><stop
         offset="1"
         stop-color="#1A237E"
         id="stop1783" /></linearGradient><linearGradient
       id="SVGID_9_"
       gradientTransform="matrix(1.2637559,0,0,-1.2637559,-237.49365,-514.39411)"
       gradientUnits="userSpaceOnUse"
       x1="30.645599"
       x2="41.250301"
       y1="-99.290497"
       y2="-125.244"><stop
         offset="0"
         stop-color="#5C6BC0"
         id="stop1786" /><stop
         offset="1"
         stop-color="#3949AB"
         id="stop1788" /></linearGradient><linearGradient
       id="SVGID_10_"
       gradientTransform="matrix(1.2637559,0,0,-1.2637559,-237.49365,-514.39411)"
       gradientUnits="userSpaceOnUse"
       x1="69.025299"
       x2="61.2113"
       y1="-98.067398"
       y2="-125.2766"><stop
         offset="0"
         stop-color="#5C6BC0"
         id="stop1791" /><stop
         offset="1"
         stop-color="#3949AB"
         id="stop1793" /></linearGradient><linearGradient
       id="SVGID_12_"
       gradientTransform="matrix(1.2637559,0,0,-1.2637559,-237.49365,-514.39411)"
       gradientUnits="userSpaceOnUse"
       x1="86.716599"
       x2="111.8999"
       y1="-107.4959"
       y2="-107.4959"><stop
         offset="0"
         stop-color="#FFB300"
         id="stop1796" /><stop
         offset="0.5"
         stop-color="#FFCA28"
         id="stop1798" /></linearGradient><filter
       style="color-interpolation-filters:sRGB;"
       inkscape:label="Blur"
       id="filter3360"
       x="-0.13714286"
       y="-0.13714286"
       width="1.2742857"
       height="1.2742857"><feGaussianBlur
         stdDeviation="2 2"
         result="blur"
         id="feGaussianBlur3358" /></filter><filter
       style="color-interpolation-filters:sRGB;"
       inkscape:label="Blur"
       id="filter3364"
       x="-0.13714286"
       y="-0.13714286"
       width="1.2742857"
       height="1.2742857"><feGaussianBlur
         stdDeviation="2 2"
         result="blur"
         id="feGaussianBlur3362" /></filter><filter
       style="color-interpolation-filters:sRGB;"
       inkscape:label="Blur"
       id="filter3368"
       x="-0.13714286"
       y="-0.13714286"
       width="1.2742857"
       height="1.2742857"><feGaussianBlur
         stdDeviation="2 2"
         result="blur"
         id="feGaussianBlur3366" /></filter><radialGradient
       id="SVGID_1_-3"
       cx="48.4085"
       cy="3.627277"
       gradientTransform="matrix(1,0,0,1.0843,1.688042,-93.796673)"
       gradientUnits="userSpaceOnUse"
       r="75.4649"><stop
         offset="0"
         stop-color="#2F7889"
         id="stop3868" /><stop
         offset="1"
         stop-color="#424242"
         id="stop3870" /></radialGradient><radialGradient
       id="SVGID_1_-6"
       cx="53.3278"
       cy="-211.628322"
       gradientTransform="matrix(1.6020521,0,0,-0.96683845,-156.8175,-113.1109)"
       gradientUnits="userSpaceOnUse"
       r="68.2194"><stop
         offset="0.5595"
         stop-color="#F5F5F5"
         id="stop4152" /><stop
         offset="1"
         stop-color="#C6C6C6"
         id="stop4154" /></radialGradient><linearGradient
       id="SVGID_2_-7"
       gradientTransform="matrix(1.6020521,0,0,-1.6020521,-156.8175,-113.1109)"
       gradientUnits="userSpaceOnUse"
       x1="87.9225"
       x2="102.3804"
       y1="-114.9478"
       y2="-116.8631"><stop
         offset="0"
         stop-color="#9E9E9E"
         stop-opacity="0"
         id="stop4157" /><stop
         offset="0.788"
         stop-color="#9E9E9E"
         id="stop4159" /></linearGradient><linearGradient
       id="SVGID_3_-5"
       gradientTransform="matrix(1.6020521,0,0,-1.6020521,-156.8175,-113.1109)"
       gradientUnits="userSpaceOnUse"
       x1="52.21"
       x2="52.21"
       y1="-105.704"
       y2="-124.733"><stop
         offset="3.200000e-03"
         stop-color="#80CBC4"
         id="stop4162" /><stop
         offset="0.3326"
         stop-color="#73C6BE"
         id="stop4164" /><stop
         offset="0.9409"
         stop-color="#51B8AE"
         id="stop4166" /><stop
         offset="1"
         stop-color="#4DB6AC"
         id="stop4168" /></linearGradient><linearGradient
       id="SVGID_4_-3"
       gradientTransform="matrix(1.6020521,0,0,-1.6020521,-156.8175,-113.1109)"
       gradientUnits="userSpaceOnUse"
       x1="38.665"
       x2="38.665"
       y1="-117.3429"
       y2="-97.1395"><stop
         offset="0.335"
         stop-color="#E0E0E0"
         id="stop4171" /><stop
         offset="0.668"
         stop-color="#D0D0D0"
         id="stop4173" /><stop
         offset="0.9874"
         stop-color="#BDBDBD"
         id="stop4175" /></linearGradient><linearGradient
       id="SVGID_5_-5"
       gradientTransform="matrix(-1.6020521,0,0,-1.6020521,-156.81749,-113.11089)"
       gradientUnits="userSpaceOnUse"
       x1="-65.6045"
       x2="-65.6045"
       y1="-117.3429"
       y2="-97.1395"><stop
         offset="0.335"
         stop-color="#E0E0E0"
         id="stop4178" /><stop
         offset="0.668"
         stop-color="#D0D0D0"
         id="stop4180" /><stop
         offset="0.9874"
         stop-color="#BDBDBD"
         id="stop4182" /></linearGradient><linearGradient
       id="SVGID_6_-6"
       gradientTransform="matrix(1.6020521,0,0,-1.6020521,-156.8175,-113.1109)"
       gradientUnits="userSpaceOnUse"
       x1="97.9733"
       x2="123.7165"
       y1="-105.2152"
       y2="-108.6256"><stop
         offset="0.4369"
         stop-color="#F5F5F5"
         id="stop4185" /><stop
         offset="1"
         stop-color="#C6C6C6"
         id="stop4187" /></linearGradient><linearGradient
       id="SVGID_7_-2"
       gradientTransform="matrix(1.6020521,0,0,-1.6020521,-156.8175,-113.1109)"
       gradientUnits="userSpaceOnUse"
       x1="118.5669"
       x2="96.0909"
       y1="-52.5689"
       y2="-105.28"><stop
         offset="0"
         stop-color="#B3E5FC"
         stop-opacity="0.8"
         id="stop4190" /><stop
         offset="0.0826"
         stop-color="#AEE3FC"
         stop-opacity="0.8165"
         id="stop4192" /><stop
         offset="0.6744"
         stop-color="#8DD8FA"
         stop-opacity="0.9349"
         id="stop4194" /><stop
         offset="1"
         stop-color="#81D4FA"
         id="stop4196" /></linearGradient><radialGradient
       id="SVGID_8_-9"
       cx="128.186557"
       cy="-62.073055"
       gradientTransform="matrix(1.5591171,0.3687924,0.3687924,-1.5591171,-156.8175,-113.1109)"
       gradientUnits="userSpaceOnUse"
       r="25.3664"><stop
         offset="0"
         stop-color="#CE93D8"
         id="stop4199" /><stop
         offset="0.2054"
         stop-color="#CA8AD5"
         id="stop4201" /><stop
         offset="0.5366"
         stop-color="#BF73CC"
         id="stop4203" /><stop
         offset="0.9503"
         stop-color="#AD4CBE"
         id="stop4205" /><stop
         offset="1"
         stop-color="#AB47BC"
         id="stop4207" /></radialGradient><linearGradient
       id="SVGID_9_-1"
       gradientTransform="matrix(1.6020521,0,0,-1.6020521,-156.8175,-113.1109)"
       gradientUnits="userSpaceOnUse"
       x1="51.6545"
       x2="51.6545"
       y1="-44.309"
       y2="-68.502"><stop
         offset="0.2028"
         stop-color="#B3E5FC"
         stop-opacity="0.5"
         id="stop4210" /><stop
         offset="1"
         stop-color="#B3E5FC"
         stop-opacity="0.2"
         id="stop4212" /></linearGradient><radialGradient
       id="hairHighlights_2_"
       cx="52.5513"
       cy="-49.591972"
       gradientTransform="matrix(1.6020521,0,0,-1.9066022,-156.8175,-113.1109)"
       gradientUnits="userSpaceOnUse"
       r="47.5316"><stop
         offset="0.7936"
         stop-color="#6D4C41"
         stop-opacity="0"
         id="stop4215" /><stop
         offset="1"
         stop-color="#6D4C41"
         id="stop4217" /></radialGradient><radialGradient
       id="hairHighlights_3_"
       cx="52.8846"
       cy="-51.956442"
       gradientTransform="matrix(1.6020521,0,0,-1.9440902,-156.8175,-113.1109)"
       gradientUnits="userSpaceOnUse"
       r="49.788"><stop
         offset="0.7945"
         stop-color="#6D4C41"
         stop-opacity="0"
         id="stop4220" /><stop
         offset="1"
         stop-color="#6D4C41"
         id="stop4222" /></radialGradient><linearGradient
       id="SVGID_10_-2"
       gradientTransform="matrix(1.6020521,0,0,-1.6020521,-156.8175,-113.1109)"
       gradientUnits="userSpaceOnUse"
       x1="80.2091"
       x2="80.2091"
       y1="-55.7805"
       y2="-43.153"><stop
         offset="0"
         stop-color="#BDBDBD"
         id="stop4225" /><stop
         offset="1"
         stop-color="#E0E0E0"
         id="stop4227" /></linearGradient><linearGradient
       id="SVGID_11_-7"
       gradientTransform="matrix(1.6020521,0,0,-1.6020521,-156.8175,-113.1109)"
       gradientUnits="userSpaceOnUse"
       x1="24.0409"
       x2="24.0409"
       y1="-55.6138"
       y2="-43.4919"><stop
         offset="0"
         stop-color="#BDBDBD"
         id="stop4230" /><stop
         offset="1"
         stop-color="#E0E0E0"
         id="stop4232" /></linearGradient><radialGradient
       id="SVGID_12_-0"
       cx="56.128"
       cy="37.000148"
       gradientTransform="matrix(0,1.6020521,2.2563302,0,-156.8175,-113.1109)"
       gradientUnits="userSpaceOnUse"
       r="22.8959"><stop
         offset="0"
         stop-color="#F5F5F5"
         id="stop4235" /><stop
         offset="0.6761"
         stop-color="#EEEEEE"
         id="stop4237" /><stop
         offset="1"
         stop-color="#E0E0E0"
         id="stop4239" /></radialGradient><radialGradient
       inkscape:collect="always"
       xlink:href="#SVGID_1_"
       id="radialGradient4530"
       gradientUnits="userSpaceOnUse"
       gradientTransform="matrix(1.3100843,0,0,1.4205243,105.90335,-211.71942)"
       cx="48.408501"
       cy="3.6272769"
       r="75.464897" /></defs><g
     inkscape:groupmode="layer"
     id="layer2"
     inkscape:label="background"
     style="display:inline"
     sodipodi:insensitive="true"><rect
       style="opacity:1;vector-effect:none;fill:#c4769c;fill-opacity:0.5;stroke:none;stroke-width:20;stroke-linecap:butt;stroke-linejoin:miter;stroke-miterlimit:0;stroke-dasharray:none;stroke-dashoffset:0;stroke-opacity:1;paint-order:normal;stop-color:#000000"
       id="rect594"
       width="160"
       height="90.000008"
       x="-10"
       y="-10" /><rect
       style="opacity:1;fill:none;fill-opacity:1;stroke:#ff00ff;stroke-width:2.5;stroke-linecap:butt;stroke-linejoin:round;stroke-miterlimit:0;stroke-dasharray:none;stroke-dashoffset:0;stroke-opacity:1;paint-order:normal;stop-color:#000000"
       id="rect649"
       width="142.50002"
       height="72.5"
       x="-1.2499999"
       y="-1.2499999" /></g><g
     inkscape:groupmode="layer"
     id="layer3"
     inkscape:label="Halos"
     style="display:none"><circle
       style="display:inline;opacity:1;fill:#ffffff;fill-opacity:1;stroke:none;stroke-width:2.5;stroke-linecap:butt;stroke-linejoin:round;stroke-miterlimit:0;stroke-dasharray:none;stroke-dashoffset:0;stroke-opacity:1;paint-order:normal;filter:url(#filter3368);stop-color:#000000"
       id="path3208"
       cx="37.5"
       cy="45"
       r="17.5"
       inkscape:transform-center-x="0.44533021"
       inkscape:transform-center-y="2.0591893" /><circle
       style="display:inline;fill:#ffffff;fill-opacity:1;stroke:none;stroke-width:2.5;stroke-linecap:butt;stroke-linejoin:round;stroke-miterlimit:0;stroke-dasharray:none;stroke-dashoffset:0;stroke-opacity:1;paint-order:normal;filter:url(#filter3364);stop-color:#000000"
       id="path3208-1"
       cx="72.5"
       cy="45"
       r="17.5" /><circle
       style="display:inline;fill:#ffffff;fill-opacity:1;stroke:none;stroke-width:2.5;stroke-linecap:butt;stroke-linejoin:round;stroke-miterlimit:0;stroke-dasharray:none;stroke-dashoffset:0;stroke-opacity:1;paint-order:normal;filter:url(#filter3360);stop-color:#000000"
       id="path3208-7"
       cx="102.5"
       cy="45"
       r="17.5" /></g><g
     inkscape:label="Emojis - basic"
     inkscape:groupmode="layer"
     id="g3805"
     transform="translate(0,-98.000002)"
     style="display:none"><g
       id="g3733"
       transform="matrix(0.25244875,0,0,0.25244875,21.333602,124.2418)"
       style="stroke-width:1.04806"><path
         d="M 106,24.79 H 22.15 c -1.92,0 -3.48,1.56 -3.48,3.48 v 57.59 c 0,1.92 1.56,3.48 3.48,3.48 H 106 c 1.92,0 3.48,-1.56 3.48,-3.48 V 28.27 c 0,-1.92 -1.55,-3.48 -3.48,-3.48 z"
         fill="#b7d5e5"
         id="path3623"
         style="stroke-width:2.09467" /><path
         d="M 104.75,83.2 H 23.4 l 0.96,-52.27 h 79.43 z"
         fill="url(#SVGID_1_)"
         id="path3625"
         style="fill:url(#SVGID_1_);stroke-width:1.04806" /><path
         d="M 121.09,123.82 H 7.59 c -0.43,0 -0.83,-0.03 -1.2,-0.09 -2.88,-0.44 -4.21,-4.18 -2.5,-6.74 l 0.39,-0.59 h 119.59 l 0.4,0.6 c 1.86,2.78 0.12,6.76 -3.04,6.81 -0.04,0.01 -0.09,0.01 -0.14,0.01 z"
         fill="#2f7889"
         id="path3627"
         style="stroke-width:2.09467" /><path
         d="M 106.84,90.41 H 20.6 c -1.27,0 -2.54,0.77 -3.25,1.99 l -14,25.48 C 2.76,118.76 3.34,120 4.34,120 H 123.8 c 1,0 1.58,-1.24 0.99,-2.12 L 110.08,92.25 c -0.7,-1.08 -1.97,-1.84 -3.24,-1.84 z"
         fill="#eeeeee"
         id="path3629"
         style="stroke-width:2.09467" /><path
         d="M 86.36,115.52 H 41.8 l 2.85,-7.98 h 39.07 z"
         fill="#b7d5e5"
         id="path3631"
         style="stroke-width:2.09467" /><g
         opacity="0.57"
         id="g3725"
         style="stroke-width:2.09467"><path
           d="m 72.69,94.84 -0.27,-2.2 h -3.44 l 0.13,2.2 z"
           fill="#69a1ba"
           id="path3633"
           style="stroke-width:4.18642" /><path
           d="M 67.14,94.84 67,92.64 h -3.45 v 2.2 z"
           fill="#69a1ba"
           id="path3635"
           style="stroke-width:4.18642" /><path
           d="m 93.61,94.84 -0.81,-2.2 h -3.26 l 0.68,2.2 z"
           fill="#69a1ba"
           id="path3637"
           style="stroke-width:4.18642" /><path
           d="m 88.36,94.84 -0.68,-2.2 h -3.32 l 0.54,2.2 z"
           fill="#69a1ba"
           id="path3639"
           style="stroke-width:4.18642" /><path
           d="m 83.18,94.84 -0.54,-2.2 h -3.37 l 0.41,2.2 z"
           fill="#69a1ba"
           id="path3641"
           style="stroke-width:4.18642" /><path
           d="m 102.11,94.84 -0.95,-2.2 h -6.71 l 0.82,2.2 z"
           fill="#69a1ba"
           id="path3643"
           style="stroke-width:4.18642" /><path
           d="m 77.61,94.84 -0.41,-2.2 h -3.41 l 0.28,2.2 z"
           fill="#69a1ba"
           id="path3645"
           style="stroke-width:4.18642" /><path
           d="m 33.76,94.84 0.68,-2.2 h -3.26 l -0.81,2.2 z"
           fill="#69a1ba"
           id="path3647"
           style="stroke-width:4.18642" /><path
           d="m 50.51,94.84 0.27,-2.2 h -3.41 l -0.4,2.2 z"
           fill="#69a1ba"
           id="path3649"
           style="stroke-width:4.18642" /><path
           d="m 39.35,94.84 0.54,-2.2 h -3.32 l -0.67,2.2 z"
           fill="#69a1ba"
           id="path3651"
           style="stroke-width:4.18642" /><path
           d="m 28.17,94.84 0.81,-2.2 H 25.8 l -0.95,2.2 z"
           fill="#69a1ba"
           id="path3653"
           style="stroke-width:4.18642" /><path
           d="m 44.93,94.84 0.41,-2.2 h -3.37 l -0.54,2.2 z"
           fill="#69a1ba"
           id="path3655"
           style="stroke-width:4.18642" /><path
           d="m 56.08,94.84 0.14,-2.2 h -3.44 l -0.27,2.2 z"
           fill="#69a1ba"
           id="path3657"
           style="stroke-width:4.18642" /><path
           d="m 61.65,94.84 v -2.2 H 58.2 l -0.14,2.2 z"
           fill="#69a1ba"
           id="path3659"
           style="stroke-width:4.18642" /><path
           d="M 83.78,103.73 H 44.36 l -0.75,2.2 h 41.08 z"
           fill="#69a1ba"
           id="path3661"
           style="stroke-width:4.18642" /><path
           d="m 102.15,105.93 -1.21,-2.2 h 6.54 l 0.95,2.2 z"
           fill="#69a1ba"
           id="path3663"
           style="stroke-width:4.18642" /><path
           d="m 86.75,105.93 -0.83,-2.2 h 6.29 l 0.96,2.2 z"
           fill="#69a1ba"
           id="path3665"
           style="stroke-width:4.18642" /><path
           d="m 95.39,105.93 -0.96,-2.2 h 4.31 l 1.1,2.2 z"
           fill="#69a1ba"
           id="path3667"
           style="stroke-width:4.18642" /><path
           d="m 25.67,105.93 1.21,-2.2 h -6.54 l -0.95,2.2 z"
           fill="#69a1ba"
           id="path3669"
           style="stroke-width:4.18642" /><path
           d="m 41.07,105.93 0.83,-2.2 h -6.29 l -0.96,2.2 z"
           fill="#69a1ba"
           id="path3671"
           style="stroke-width:4.18642" /><path
           d="m 32.42,105.93 0.97,-2.2 h -4.31 l -1.11,2.2 z"
           fill="#69a1ba"
           id="path3673"
           style="stroke-width:4.18642" /><path
           d="m 29.71,98.51 0.82,-2.19 h -6.67 l -0.95,2.19 z"
           fill="#69a1ba"
           id="path3675"
           style="stroke-width:4.18642" /><path
           d="m 97.95,98.51 -0.81,-2.19 h 6.66 l 0.95,2.19 z"
           fill="#69a1ba"
           id="path3677"
           style="stroke-width:4.18642" /><path
           d="m 96.25,98.51 -0.96,-2.19 h -3.85 l 0.82,2.19 z"
           fill="#69a1ba"
           id="path3679"
           style="stroke-width:4.18642" /><path
           d="m 86.23,98.51 -0.65,-2.19 h 3.85 l 0.78,2.19 z"
           fill="#69a1ba"
           id="path3681"
           style="stroke-width:4.18642" /><path
           d="m 80.19,98.51 -0.47,-2.19 h 3.85 l 0.6,2.19 z"
           fill="#69a1ba"
           id="path3683"
           style="stroke-width:4.18642" /><path
           d="m 74.15,98.51 -0.28,-2.19 h 3.84 l 0.43,2.19 z"
           fill="#69a1ba"
           id="path3685"
           style="stroke-width:4.18642" /><path
           d="m 68.12,98.51 -0.11,-2.19 h 3.85 l 0.24,2.19 z"
           fill="#69a1ba"
           id="path3687"
           style="stroke-width:4.18642" /><path
           d="m 62.08,98.51 0.07,-2.19 H 66 l 0.06,2.19 z"
           fill="#69a1ba"
           id="path3689"
           style="stroke-width:4.18642" /><path
           d="m 56.04,98.51 0.25,-2.19 h 3.85 l -0.11,2.19 z"
           fill="#69a1ba"
           id="path3691"
           style="stroke-width:4.18642" /><path
           d="m 50.01,98.51 0.42,-2.19 h 3.85 l -0.29,2.19 z"
           fill="#69a1ba"
           id="path3693"
           style="stroke-width:4.18642" /><path
           d="m 43.97,98.51 0.6,-2.19 h 3.85 l -0.47,2.19 z"
           fill="#69a1ba"
           id="path3695"
           style="stroke-width:4.18642" /><path
           d="m 37.93,98.51 0.78,-2.19 h 3.85 l -0.64,2.19 z"
           fill="#69a1ba"
           id="path3697"
           style="stroke-width:4.18642" /><path
           d="m 31.9,98.51 0.95,-2.19 h 3.85 l -0.82,2.19 z"
           fill="#69a1ba"
           id="path3699"
           style="stroke-width:4.18642" /><path
           d="m 29.7,102.22 0.81,-2.2 h -8.75 l -0.95,2.2 z"
           fill="#69a1ba"
           id="path3701"
           style="stroke-width:4.18642" /><path
           d="m 95.87,102.22 -0.77,-2.2 h -4.17 l 0.64,2.2 z"
           fill="#69a1ba"
           id="path3703"
           style="stroke-width:4.18642" /><path
           d="m 84.93,102.22 -0.48,-2.2 h 4.16 l 0.62,2.2 z"
           fill="#69a1ba"
           id="path3705"
           style="stroke-width:4.18642" /><path
           d="m 78.28,102.22 -0.32,-2.2 h 4.17 l 0.45,2.2 z"
           fill="#69a1ba"
           id="path3707"
           style="stroke-width:4.18642" /><path
           d="m 71.64,102.22 -0.17,-2.2 h 4.17 l 0.3,2.2 z"
           fill="#69a1ba"
           id="path3709"
           style="stroke-width:4.18642" /><path
           d="m 65,102.22 -0.01,-2.2 h 4.16 l 0.15,2.2 z"
           fill="#69a1ba"
           id="path3711"
           style="stroke-width:4.18642" /><path
           d="m 58.36,102.22 0.14,-2.2 h 4.17 l -0.01,2.2 z"
           fill="#69a1ba"
           id="path3713"
           style="stroke-width:4.18642" /><path
           d="m 51.71,102.22 0.3,-2.2 h 4.17 l -0.17,2.2 z"
           fill="#69a1ba"
           id="path3715"
           style="stroke-width:4.18642" /><path
           d="m 45.07,102.22 0.46,-2.2 h 4.16 l -0.32,2.2 z"
           fill="#69a1ba"
           id="path3717"
           style="stroke-width:4.18642" /><path
           d="m 38.43,102.22 0.61,-2.2 h 4.17 l -0.48,2.2 z"
           fill="#69a1ba"
           id="path3719"
           style="stroke-width:4.18642" /><path
           d="m 31.78,102.22 0.77,-2.2 h 4.17 l -0.63,2.2 z"
           fill="#69a1ba"
           id="path3721"
           style="stroke-width:4.18642" /><path
           d="m 97.47,102.22 -0.82,-2.2 h 8.75 l 0.95,2.2 z"
           fill="#69a1ba"
           id="path3723"
           style="stroke-width:4.18642" /></g><path
         d="M 124.73,117.88 110.39,92.4 c -0.71,-1.07 -1.98,-1.84 -3.25,-1.84 0,0 1.22,1.1 1.59,1.63 l 12.59,23.59 c 0.56,1.02 -0.18,2.26 -1.34,2.26 H 7.96 c -1.15,0 -1.89,-1.23 -1.35,-2.24 L 18.56,92.62 c 0.35,-0.6 1.88,-1.99 1.88,-1.99 h -0.45 c -1.27,0 -2.54,0.77 -3.25,1.99 L 3.28,117.88 C 2.69,118.76 3.27,120 4.27,120 h 119.46 c 1.01,0 1.59,-1.24 1,-2.12 z"
         fill="#b7d5e5"
         id="path3727"
         style="stroke-width:2.09467" /><path
         d="m 25.97,26.552 h 13.21 q 1.468,0 1.468,1.468 0,1.468 -1.468,1.468 H 25.97 q -1.468,0 -1.468,-1.468 0,-1.468 1.468,-1.468 z"
         fill="#eeeeee"
         id="path3729"
         style="stroke-width:2.09467" /><path
         d="m 109.37,30.11 c 0,-1.04 -1.01,-1.12 -1.01,0.11 0,1.23 0,55.8 0,55.8 0,1.34 -1.09,2.43 -2.43,2.43 H 22.08 c -1.34,0 -2.43,-1.09 -2.43,-2.43 0,0 0,-54.57 0,-55.8 0,-1.23 -1.01,-1.15 -1.01,-0.11 l -0.95,55.91 c 0,2.42 1.24,4.39 4.39,4.39 h 83.85 c 2.73,0 4.39,-1.97 4.39,-4.39 z"
         fill="#75a7bc"
         id="path3731"
         style="stroke-width:2.09467" /></g><g
       id="g3745"
       transform="matrix(0.20774472,0,0,0.20774472,59.20434,129.70434)"
       style="stroke-width:1.2736"><path
         d="m 124.17,27.95 v 87.49 c 0,4.82 -3.91,8.73 -8.73,8.73 H 12.56 c -4.82,0 -8.73,-3.91 -8.73,-8.73 V 12.56 c 0,-4.82 3.91,-8.73 8.73,-8.73 h 89.64 c 3.56,0 6.94,1.59 9.21,4.34 l 10.04,12.19 c 1.76,2.14 2.72,4.82 2.72,7.59 z"
         fill="#616161"
         id="path3735"
         style="stroke-width:2.02757" /><path
         d="M 103.94,124.17 H 24 V 71.25 c 0,-1.81 1.47,-3.28 3.28,-3.28 h 73.39 c 1.81,0 3.28,1.47 3.28,3.28 v 52.92 z"
         fill="#ffffff"
         id="path3737"
         style="stroke-width:2.02757" /><path
         d="m 24,111.92 h 79.94 v 12.25 H 24 Z"
         fill="#039be5"
         id="path3739"
         style="stroke-width:2.02757" /><path
         d="m 16.75,3.83 v 47.75 c 0,1.78 1.57,3.17 3.65,3.17 h 76.65 c 2.08,0 3.69,-1.38 3.69,-3.17 V 3.83 Z"
         fill="#424242"
         id="path3741"
         style="stroke-width:2.02757" /><path
         d="m 35,3.83 v 45.02 c 0,1.68 1.18,2.98 2.74,2.98 H 95.2 c 1.56,0 2.77,-1.3 2.77,-2.98 V 3.83 Z m 50.97,42.69 c 0,0.72 -0.59,1.31 -1.31,1.31 H 67.28 c -0.72,0 -1.31,-0.59 -1.31,-1.31 V 9.14 c 0,-0.72 0.59,-1.31 1.31,-1.31 h 17.38 c 0.72,0 1.31,0.59 1.31,1.31 z"
         fill="#e0e0e0"
         id="path3743"
         style="stroke-width:2.02757" /></g><g
       id="g3803"
       transform="matrix(0.2093627,0,0,0.2093627,91.599168,129.53903)"
       style="stroke-width:1.26376"><path
         id="path3747"
         d="M 84.91,79.85 C 83.66,77.58 85.25,75.27 87.97,72.41 92.28,67.87 96.02,54.76 87.49,45.86 87.52,45.8 86.63,44 86.66,43.94 l -1.79,-0.09 c -0.57,-0.08 -15.14,0.67 -34.84,0.67 -19.7,0 -36.36,-0.16 -36.94,-0.08 0,0 -0.79,1.04 -0.76,1.1 -7.58,7.67 -8.3,19.33 -0.26,26.86 2.88,2.69 4.3,5.17 3.06,7.44 -1.21,2.21 -4.81,2.53 -4.81,2.53 0,0 0.83,2.26 2.83,3.48 1.85,1.13 4.13,1.39 5.7,1.43 0,0 6.15,8.51 22.23,8.51 h 8.95 8.95 c 16.08,0 22.23,-8.51 22.23,-8.51 1.57,-0.04 3.85,-0.3 5.7,-1.43 2,-1.22 2.83,-3.48 2.83,-3.48 0,0 -3.62,-0.31 -4.83,-2.52 z"
         fill="#543930"
         style="stroke-width:1.99636" /><path
         d="m 50,95.79 v -9.44 l 28.57,-2.26 2.6,3.2 c 0,0 -6.15,8.51 -22.23,8.51 z"
         fill="url(#SVGID_1_)"
         id="path3749"
         style="fill:url(#SVGID_1_-4);stroke-width:1.26376" /><path
         d="m 81.11,83.16 c -4.28,-6.5 5.21,-8.93 5.21,-8.93 0,0 0.01,0.01 0.01,0.01 -1.65,2.05 -2.4,3.84 -1.43,5.61 1.21,2.21 4.81,2.53 4.81,2.53 0,0 -4.91,4.36 -8.6,0.78 z"
         fill="url(#SVGID_2_)"
         id="path3751"
         style="fill:url(#SVGID_2_);stroke-width:1.26376" /><path
         d="m 87.5,45.85 c 7.2,7.6 6.23,18.85 0.72,26.3 -0.5,0.68 -3.01,3.01 -3.57,4.92 0,0 -9.54,-13.31 -12.39,-21.13 -0.57,-1.58 -1.1,-3.2 -1.17,-4.88 -0.05,-1.26 0.14,-2.76 0.87,-3.83 0.89,-1.3 15.04,-2.48 15.04,-2.48 -0.01,0.01 0.5,1.1 0.5,1.1 z"
         fill="url(#SVGID_3_)"
         id="path3753"
         style="fill:url(#SVGID_3_);stroke-width:1.26376" /><path
         d="m 12.31,45.54 c -7.93,8.17 -7.84,19.77 -0.49,26.61 0.62,0.57 3.01,3.01 3.57,4.92 0,0 9.54,-13.31 12.39,-21.13 0.58,-1.58 1.1,-3.2 1.17,-4.88 0.05,-1.26 -0.14,-2.76 -0.87,-3.83 -0.89,-1.31 -1.93,-0.96 -3.44,-0.96 -2.88,0 -10.59,-1.84 -11.57,-1.84 0.01,0.02 -0.76,1.11 -0.76,1.11 z"
         fill="url(#SVGID_4_)"
         id="path3755"
         style="fill:url(#SVGID_4_);stroke-width:1.26376" /><path
         d="m 50.04,95.79 v -9.44 l -28.57,-2.26 -2.6,3.2 c 0,0 6.15,8.51 22.23,8.51 z"
         fill="url(#SVGID_5_)"
         id="path3757"
         style="fill:url(#SVGID_5_);stroke-width:1.26376" /><path
         d="m 18.93,83.16 c 4.28,-6.5 -5.21,-8.93 -5.21,-8.93 0,0 -0.01,0.01 -0.01,0.01 1.65,2.05 2.4,3.84 1.43,5.61 -1.21,2.21 -4.81,2.53 -4.81,2.53 0,0 4.91,4.36 8.6,0.78 z"
         fill="url(#SVGID_6_)"
         id="path3759"
         style="fill:url(#SVGID_6_);stroke-width:1.26376" /><path
         d="m 50.01,95.74 c -22.55,0.03 -46,7.28 -46,25.06 v 3.2 h 92 v -3.2 c 0,-16.78 -23.31,-25.09 -46,-25.06 z"
         fill="url(#SVGID_7_)"
         id="path3761"
         style="fill:url(#SVGID_7_);stroke-width:1.26376" /><path
         d="m 113.75,120.8 c 0,-5.28 -2.86,-9.89 -8.52,-13.73 L 101.7,124 h 12.05 z"
         fill="url(#SVGID_8_)"
         id="path3763"
         style="fill:url(#SVGID_8_);stroke-width:1.26376" /><path
         d="m 106.22,109.67 c 4,3.25 6.03,6.97 6.03,11.13 v 3.2 h 3 v -3.2 c 0,-6.76 -4.27,-12.14 -11.04,-16.15 L 100.17,124 h 3.07 z"
         fill="#1b2b8f"
         id="path3765"
         style="stroke-width:1.99636" /><path
         d="m 50.01,92.37 h -9.08 v 9.98 c 0,4.51 3.7,8.17 8.26,8.17 h 1.65 c 4.56,0 8.26,-3.66 8.26,-8.17 v -9.98 z"
         fill="#e59600"
         id="path3767"
         style="stroke-width:1.99636" /><path
         d="M 77.33,50.48 H 22.67 c -5.89,0 -10.71,5.13 -10.71,11.41 0,6.28 4.82,11.41 10.71,11.41 h 54.65 c 5.89,0 10.71,-5.14 10.71,-11.41 0,-6.27 -4.81,-11.41 -10.7,-11.41 z"
         fill="#e59600"
         id="path3769"
         style="stroke-width:1.99636" /><path
         d="m 50,11.11 v 0 0 c -17.4,0 -33.52,18.61 -33.52,45.4 0,26.64 16.61,39.81 33.52,39.81 16.91,0 33.52,-13.17 33.52,-39.81 C 83.52,29.72 67.4,11.11 50,11.11 Z"
         fill="#ffca28"
         id="path3771"
         style="stroke-width:1.99636" /><path
         id="path3773"
         d="m 58.32,76.14 c -3.15,1.87 -13.47,1.87 -16.61,0 -1.81,-1.07 -3.65,0.57 -2.9,2.21 0.74,1.61 6.37,5.36 11.23,5.36 4.86,0 10.42,-3.75 11.16,-5.36 0.75,-1.64 -1.08,-3.29 -2.88,-2.21 z"
         fill="#795548"
         style="stroke-width:1.99636" /><path
         id="path3775"
         d="M 53.81,68.06 C 53.71,68.02 53.6,67.99 53.49,67.98 H 46.5 c -0.11,0.01 -0.21,0.04 -0.32,0.08 -0.63,0.26 -0.98,0.91 -0.68,1.61 0.3,0.7 1.69,2.66 4.49,2.66 2.8,0 4.19,-1.96 4.49,-2.66 0.31,-0.7 -0.03,-1.36 -0.67,-1.61 z"
         fill="#e59600"
         style="stroke-width:1.99636" /><path
         d="m 38.49,58.81 a 4.93,5.1 0 1 1 -9.86,0 4.93,5.1 0 1 1 9.86,0 z"
         fill="#404040"
         id="path3777"
         style="stroke-width:1.99636" /><path
         d="m 71.37,58.81 a 4.93,5.1 0 1 1 -9.86,0 4.93,5.1 0 1 1 9.86,0 z"
         fill="#404040"
         id="path3779"
         style="stroke-width:1.99636" /><path
         d="m 40.99,49.82 c -0.93,-1.23 -3.07,-3.01 -7.23,-3.01 -4.16,0 -6.31,1.79 -7.23,3.01 -0.41,0.54 -0.31,1.17 -0.02,1.55 0.26,0.35 1.04,0.68 1.9,0.39 0.86,-0.29 2.54,-1.16 5.35,-1.18 2.81,0.02 4.49,0.89 5.35,1.18 0.86,0.29 1.64,-0.03 1.9,-0.39 0.28,-0.38 0.38,-1.01 -0.02,-1.55 z"
         fill="#6d4c41"
         id="path3781"
         style="stroke-width:1.99636" /><path
         d="m 73.48,49.82 c -0.93,-1.23 -3.07,-3.01 -7.23,-3.01 -4.16,0 -6.31,1.79 -7.23,3.01 -0.41,0.54 -0.31,1.17 -0.02,1.55 0.26,0.35 1.04,0.68 1.9,0.39 0.86,-0.29 2.54,-1.16 5.35,-1.18 2.81,0.02 4.49,0.89 5.35,1.18 0.86,0.29 1.64,-0.03 1.9,-0.39 0.29,-0.38 0.39,-1.01 -0.02,-1.55 z"
         fill="#6d4c41"
         id="path3783"
         style="stroke-width:1.99636" /><path
         id="path3785"
         d="M 59.31,104.56 H 39.42 L 47.31,124 h 5.05 z"
         fill="#f5f5f5"
         style="stroke-width:1.99636" /><path
         d="m 40.89,95.97 -7.78,0.91 -8,17.24 10.87,-4.29 9.56,14.17 h 1.2 0.48 1.04 z"
         fill="url(#SVGID_9_)"
         id="path3787"
         style="fill:url(#SVGID_9_);stroke-width:1.26376" /><path
         d="M 66.91,96.88 59.13,95.97 51.76,124 h 1.03 0.75 1.23 l 10.05,-14 10.09,4.12 z"
         fill="url(#SVGID_10_)"
         id="path3789"
         style="fill:url(#SVGID_10_);stroke-width:1.26376" /><path
         d="m 121.82,56.74 c -0.34,-0.6 -0.92,-0.88 -1.49,-0.88 -0.76,0 -1.5,0.49 -1.67,1.38 l -1.46,7.9 c -0.1,0.53 -0.44,0.99 -0.93,1.22 l -8.08,3.87 c -0.23,0.11 -0.48,0.17 -0.73,0.17 -0.46,0 -0.9,-0.18 -1.23,-0.53 l -6.16,-6.5 C 99.7,62.98 99.54,62.43 99.63,61.9 l 1.46,-7.9 c 0.21,-1.14 -0.69,-2 -1.68,-2 -0.37,0 -0.75,0.12 -1.09,0.4 -2.95,2.45 -5.12,5.97 -5.89,10.12 -1.09,5.9 0.91,11.61 4.82,15.33 1.76,1.68 2.6,4.1 2.16,6.49 L 92.1,124 h 1.02 1.02 6.24 1.02 1.02 l 6.99,-37.82 c 0.44,-2.39 2.09,-4.35 4.33,-5.29 4.98,-2.08 8.89,-6.69 9.98,-12.6 0.75,-4.14 -0.01,-8.21 -1.9,-11.55 z"
         fill="url(#SVGID_11_)"
         id="path3791"
         style="fill:url(#SVGID_11_);stroke-width:1.26376" /><path
         d="m 94.51,117.35 -1.9,2.15 c 0,0 -5.68,-1.21 -5.01,-4.5 0.16,-0.78 1.56,-2.44 1.56,-2.44 0,0 -2.85,-2.35 -2.4,-3.94 0.45,-1.57 3.17,-2.79 3.17,-2.79 0,0 -2.11,-1.26 -1.28,-3.63 0.57,-1.62 3.53,-2.16 3.53,-2.16 0,0 -2.76,-4.05 2.85,-4.97 1.77,-0.29 5.74,0.3 9.3,2.93 3.56,2.63 5.19,4.21 6.83,7.67 2.5,5.25 -1.92,14.25 -5.31,14.33 -2.83,0.06 -11.34,-2.65 -11.34,-2.65 z"
         fill="url(#SVGID_12_)"
         id="path3793"
         style="fill:url(#SVGID_12_);stroke-width:1.26376" /><path
         id="path3795"
         d="m 13,44.81 c 1.64,4.45 2.27,7.67 2.27,7.67 -0.46,8.01 1.03,12.94 1.82,14.94 0.14,0.35 0.63,0.32 0.72,-0.04 0.99,-3.97 4.36,-17.8 4.03,-20.21 0,0 11.34,-2.25 22.17,-10.22 2.2,-1.62 4.59,-3 7.13,-4.01 13.59,-5.41 16.43,3.82 16.43,3.82 0,0 9.42,-1.81 12.26,11.27 1.07,4.9 1.79,12.75 2.4,18.24 0.04,0.39 0.57,0.47 0.72,0.11 0.95,-2.18 2.85,-6.5 3.3,-10.91 0.16,-1.55 0.9,-3.76 0.73,-10.66 C 86.88,40.7 68.36,23.83 49.99,24.06 30.88,24.3 11.89,41.79 13,44.81 Z"
         fill="#543930"
         style="stroke-width:1.99636" /><path
         d="m 49.73,4.59 c 17.94,0 34.41,11.66 37.27,40.22 0,0 -9.75,-8.02 -36.77,-8.02 -29.25,0 -37.33,8.53 -37.23,7.6 3.12,-28.52 19.59,-39.8 37.23,-39.8 z"
         fill="url(#SVGID_13_)"
         id="path3797"
         style="fill:url(#SVGID_13_);stroke-width:1.26376" /><path
         d="m 26.93,34.45 c 0,-18.74 8.97,-28.81 22.8,-28.81 13.83,0 22.8,10.47 22.8,28.81 0,14.9 -10.78,3.17 -22.8,3.17 -12.02,0 -22.8,11.74 -22.8,-3.17 z"
         fill="url(#SVGID_14_)"
         id="path3799"
         style="fill:url(#SVGID_14_);stroke-width:1.26376" /><path
         d="m 50.09,28.49 c -21.77,0 -32.21,11.89 -32.21,11.89 -0.02,1.97 2.2,5.52 7.25,6.33 6.95,1.12 11.44,-4.5 24.85,-4.5 0.03,0 0.05,0 0.07,0 v -0.03 l 0.04,0.03 c 0.03,0 0.05,0 0.07,0 13.41,0 17.89,5.61 24.85,4.5 C 80.06,45.9 81.9,42.86 81.88,40.9 81.87,40.89 72.12,28.49 50.09,28.49 Z"
         fill="#5e97f6"
         id="path3801"
         style="stroke-width:1.99636" /></g></g><g
     inkscape:label="Emojis - help"
     inkscape:groupmode="layer"
     id="g3838"
     transform="translate(0,-98.000002)"
     style="display:inline"><g
       id="g3766"
       transform="matrix(0.201959,0,0,0.201959,19.566881,127.99344)"
       style="stroke-width:1.31008"><path
         d="M 106,24.79 H 22.15 c -1.92,0 -3.48,1.56 -3.48,3.48 v 57.59 c 0,1.92 1.56,3.48 3.48,3.48 H 106 c 1.92,0 3.48,-1.56 3.48,-3.48 V 28.27 c 0,-1.92 -1.55,-3.48 -3.48,-3.48 z"
         fill="#b7d5e5"
         id="path3656"
         style="stroke-width:2.61834" /><path
         d="M 104.75,83.2 H 23.4 l 0.96,-52.27 h 79.43 z"
         fill="url(#SVGID_1_)"
         id="path3658"
         style="fill:url(#radialGradient4530);stroke-width:1.31008" /><path
         d="M 121.09,123.82 H 7.59 c -0.43,0 -0.83,-0.03 -1.2,-0.09 -2.88,-0.44 -4.21,-4.18 -2.5,-6.74 l 0.39,-0.59 h 119.59 l 0.4,0.6 c 1.86,2.78 0.12,6.76 -3.04,6.81 -0.04,0.01 -0.09,0.01 -0.14,0.01 z"
         fill="#2f7889"
         id="path3660"
         style="stroke-width:2.61834" /><path
         d="M 106.84,90.41 H 20.6 c -1.27,0 -2.54,0.77 -3.25,1.99 l -14,25.48 C 2.76,118.76 3.34,120 4.34,120 H 123.8 c 1,0 1.58,-1.24 0.99,-2.12 L 110.08,92.25 c -0.7,-1.08 -1.97,-1.84 -3.24,-1.84 z"
         fill="#eeeeee"
         id="path3662"
         style="stroke-width:2.61834" /><path
         d="M 86.36,115.52 H 41.8 l 2.85,-7.98 h 39.07 z"
         fill="#b7d5e5"
         id="path3664"
         style="stroke-width:2.61834" /><g
         opacity="0.57"
         id="g3758"
         style="stroke-width:2.61834"><path
           d="m 72.69,94.84 -0.27,-2.2 h -3.44 l 0.13,2.2 z"
           fill="#69a1ba"
           id="path3666"
           style="stroke-width:5.23303" /><path
           d="M 67.14,94.84 67,92.64 h -3.45 v 2.2 z"
           fill="#69a1ba"
           id="path3668"
           style="stroke-width:5.23303" /><path
           d="m 93.61,94.84 -0.81,-2.2 h -3.26 l 0.68,2.2 z"
           fill="#69a1ba"
           id="path3670"
           style="stroke-width:5.23303" /><path
           d="m 88.36,94.84 -0.68,-2.2 h -3.32 l 0.54,2.2 z"
           fill="#69a1ba"
           id="path3672"
           style="stroke-width:5.23303" /><path
           d="m 83.18,94.84 -0.54,-2.2 h -3.37 l 0.41,2.2 z"
           fill="#69a1ba"
           id="path3674"
           style="stroke-width:5.23303" /><path
           d="m 102.11,94.84 -0.95,-2.2 h -6.71 l 0.82,2.2 z"
           fill="#69a1ba"
           id="path3676"
           style="stroke-width:5.23303" /><path
           d="m 77.61,94.84 -0.41,-2.2 h -3.41 l 0.28,2.2 z"
           fill="#69a1ba"
           id="path3678"
           style="stroke-width:5.23303" /><path
           d="m 33.76,94.84 0.68,-2.2 h -3.26 l -0.81,2.2 z"
           fill="#69a1ba"
           id="path3680"
           style="stroke-width:5.23303" /><path
           d="m 50.51,94.84 0.27,-2.2 h -3.41 l -0.4,2.2 z"
           fill="#69a1ba"
           id="path3682"
           style="stroke-width:5.23303" /><path
           d="m 39.35,94.84 0.54,-2.2 h -3.32 l -0.67,2.2 z"
           fill="#69a1ba"
           id="path3684"
           style="stroke-width:5.23303" /><path
           d="m 28.17,94.84 0.81,-2.2 H 25.8 l -0.95,2.2 z"
           fill="#69a1ba"
           id="path3686"
           style="stroke-width:5.23303" /><path
           d="m 44.93,94.84 0.41,-2.2 h -3.37 l -0.54,2.2 z"
           fill="#69a1ba"
           id="path3688"
           style="stroke-width:5.23303" /><path
           d="m 56.08,94.84 0.14,-2.2 h -3.44 l -0.27,2.2 z"
           fill="#69a1ba"
           id="path3690"
           style="stroke-width:5.23303" /><path
           d="m 61.65,94.84 v -2.2 H 58.2 l -0.14,2.2 z"
           fill="#69a1ba"
           id="path3692"
           style="stroke-width:5.23303" /><path
           d="M 83.78,103.73 H 44.36 l -0.75,2.2 h 41.08 z"
           fill="#69a1ba"
           id="path3694"
           style="stroke-width:5.23303" /><path
           d="m 102.15,105.93 -1.21,-2.2 h 6.54 l 0.95,2.2 z"
           fill="#69a1ba"
           id="path3696"
           style="stroke-width:5.23303" /><path
           d="m 86.75,105.93 -0.83,-2.2 h 6.29 l 0.96,2.2 z"
           fill="#69a1ba"
           id="path3698"
           style="stroke-width:5.23303" /><path
           d="m 95.39,105.93 -0.96,-2.2 h 4.31 l 1.1,2.2 z"
           fill="#69a1ba"
           id="path3700"
           style="stroke-width:5.23303" /><path
           d="m 25.67,105.93 1.21,-2.2 h -6.54 l -0.95,2.2 z"
           fill="#69a1ba"
           id="path3702"
           style="stroke-width:5.23303" /><path
           d="m 41.07,105.93 0.83,-2.2 h -6.29 l -0.96,2.2 z"
           fill="#69a1ba"
           id="path3704"
           style="stroke-width:5.23303" /><path
           d="m 32.42,105.93 0.97,-2.2 h -4.31 l -1.11,2.2 z"
           fill="#69a1ba"
           id="path3706"
           style="stroke-width:5.23303" /><path
           d="m 29.71,98.51 0.82,-2.19 h -6.67 l -0.95,2.19 z"
           fill="#69a1ba"
           id="path3708"
           style="stroke-width:5.23303" /><path
           d="m 97.95,98.51 -0.81,-2.19 h 6.66 l 0.95,2.19 z"
           fill="#69a1ba"
           id="path3710"
           style="stroke-width:5.23303" /><path
           d="m 96.25,98.51 -0.96,-2.19 h -3.85 l 0.82,2.19 z"
           fill="#69a1ba"
           id="path3712"
           style="stroke-width:5.23303" /><path
           d="m 86.23,98.51 -0.65,-2.19 h 3.85 l 0.78,2.19 z"
           fill="#69a1ba"
           id="path3714"
           style="stroke-width:5.23303" /><path
           d="m 80.19,98.51 -0.47,-2.19 h 3.85 l 0.6,2.19 z"
           fill="#69a1ba"
           id="path3716"
           style="stroke-width:5.23303" /><path
           d="m 74.15,98.51 -0.28,-2.19 h 3.84 l 0.43,2.19 z"
           fill="#69a1ba"
           id="path3718"
           style="stroke-width:5.23303" /><path
           d="m 68.12,98.51 -0.11,-2.19 h 3.85 l 0.24,2.19 z"
           fill="#69a1ba"
           id="path3720"
           style="stroke-width:5.23303" /><path
           d="m 62.08,98.51 0.07,-2.19 H 66 l 0.06,2.19 z"
           fill="#69a1ba"
           id="path3722"
           style="stroke-width:5.23303" /><path
           d="m 56.04,98.51 0.25,-2.19 h 3.85 l -0.11,2.19 z"
           fill="#69a1ba"
           id="path3724"
           style="stroke-width:5.23303" /><path
           d="m 50.01,98.51 0.42,-2.19 h 3.85 l -0.29,2.19 z"
           fill="#69a1ba"
           id="path3726"
           style="stroke-width:5.23303" /><path
           d="m 43.97,98.51 0.6,-2.19 h 3.85 l -0.47,2.19 z"
           fill="#69a1ba"
           id="path3728"
           style="stroke-width:5.23303" /><path
           d="m 37.93,98.51 0.78,-2.19 h 3.85 l -0.64,2.19 z"
           fill="#69a1ba"
           id="path3730"
           style="stroke-width:5.23303" /><path
           d="m 31.9,98.51 0.95,-2.19 h 3.85 l -0.82,2.19 z"
           fill="#69a1ba"
           id="path3732"
           style="stroke-width:5.23303" /><path
           d="m 29.7,102.22 0.81,-2.2 h -8.75 l -0.95,2.2 z"
           fill="#69a1ba"
           id="path3734"
           style="stroke-width:5.23303" /><path
           d="m 95.87,102.22 -0.77,-2.2 h -4.17 l 0.64,2.2 z"
           fill="#69a1ba"
           id="path3736"
           style="stroke-width:5.23303" /><path
           d="m 84.93,102.22 -0.48,-2.2 h 4.16 l 0.62,2.2 z"
           fill="#69a1ba"
           id="path3738"
           style="stroke-width:5.23303" /><path
           d="m 78.28,102.22 -0.32,-2.2 h 4.17 l 0.45,2.2 z"
           fill="#69a1ba"
           id="path3740"
           style="stroke-width:5.23303" /><path
           d="m 71.64,102.22 -0.17,-2.2 h 4.17 l 0.3,2.2 z"
           fill="#69a1ba"
           id="path3742"
           style="stroke-width:5.23303" /><path
           d="m 65,102.22 -0.01,-2.2 h 4.16 l 0.15,2.2 z"
           fill="#69a1ba"
           id="path3744"
           style="stroke-width:5.23303" /><path
           d="m 58.36,102.22 0.14,-2.2 h 4.17 l -0.01,2.2 z"
           fill="#69a1ba"
           id="path3746"
           style="stroke-width:5.23303" /><path
           d="m 51.71,102.22 0.3,-2.2 h 4.17 l -0.17,2.2 z"
           fill="#69a1ba"
           id="path3748"
           style="stroke-width:5.23303" /><path
           d="m 45.07,102.22 0.46,-2.2 h 4.16 l -0.32,2.2 z"
           fill="#69a1ba"
           id="path3750"
           style="stroke-width:5.23303" /><path
           d="m 38.43,102.22 0.61,-2.2 h 4.17 l -0.48,2.2 z"
           fill="#69a1ba"
           id="path3752"
           style="stroke-width:5.23303" /><path
           d="m 31.78,102.22 0.77,-2.2 h 4.17 l -0.63,2.2 z"
           fill="#69a1ba"
           id="path3754"
           style="stroke-width:5.23303" /><path
           d="m 97.47,102.22 -0.82,-2.2 h 8.75 l 0.95,2.2 z"
           fill="#69a1ba"
           id="path3756"
           style="stroke-width:5.23303" /></g><path
         d="M 124.73,117.88 110.39,92.4 c -0.71,-1.07 -1.98,-1.84 -3.25,-1.84 0,0 1.22,1.1 1.59,1.63 l 12.59,23.59 c 0.56,1.02 -0.18,2.26 -1.34,2.26 H 7.96 c -1.15,0 -1.89,-1.23 -1.35,-2.24 L 18.56,92.62 c 0.35,-0.6 1.88,-1.99 1.88,-1.99 h -0.45 c -1.27,0 -2.54,0.77 -3.25,1.99 L 3.28,117.88 C 2.69,118.76 3.27,120 4.27,120 h 119.46 c 1.01,0 1.59,-1.24 1,-2.12 z"
         fill="#b7d5e5"
         id="path3760"
         style="stroke-width:2.61834" /><path
         d="m 25.97,26.552 h 13.21 q 1.468,0 1.468,1.468 0,1.468 -1.468,1.468 H 25.97 q -1.468,0 -1.468,-1.468 0,-1.468 1.468,-1.468 z"
         fill="#eeeeee"
         id="path3762"
         style="stroke-width:2.61834" /><path
         d="m 109.37,30.11 c 0,-1.04 -1.01,-1.12 -1.01,0.11 0,1.23 0,55.8 0,55.8 0,1.34 -1.09,2.43 -2.43,2.43 H 22.08 c -1.34,0 -2.43,-1.09 -2.43,-2.43 0,0 0,-54.57 0,-55.8 0,-1.23 -1.01,-1.15 -1.01,-0.11 l -0.95,55.91 c 0,2.42 1.24,4.39 4.39,4.39 h 83.85 c 2.73,0 4.39,-1.97 4.39,-4.39 z"
         fill="#75a7bc"
         id="path3764"
         style="stroke-width:2.61834" /></g><g
       id="g4122"
       transform="matrix(0.17574078,0,0,0.17574078,48.752439,131.75198)"
       style="stroke-width:1.50553"><path
         d="M 10.1,23.35 C 6.37,26.2 4.45,34.16 4.05,45.42 3.65,56.68 5.77,62.8 6.51,64.65 c 0.74,1.85 6.3,4.61 12.56,9.45 4.59,3.55 40.63,28.64 44.9,30.59 6.79,3.09 11.11,-3.16 11.11,-3.16 0,0 3.6,2.06 7.08,0 4.25,-2.52 3.75,-5.65 3.75,-5.65 0,0 4.38,1.01 6.61,-0.96 2.23,-1.97 3.22,-6.7 3.22,-6.7 0,0 2.95,1.34 5.45,-0.89 2.5,-2.23 4.4,-5.25 1.75,-9.37 C 100.29,73.84 89.51,60.86 86.71,57.22 83.91,53.58 76.71,32.82 69.78,30.75 62.85,28.68 56.01,29.21 48.77,31.35 41.53,33.49 34.76,33.29 26.72,31.01 18.68,28.73 10.1,23.35 10.1,23.35 Z"
         fill="#ffca28"
         id="path4079"
         style="stroke-width:1.69997" /><path
         d="m 123.31,41 c -1.48,-9.85 -3.43,-16.55 -4.88,-18.17 -1.66,-1.84 -4.51,1.82 -10.54,3.96 -6.03,2.14 -16.89,2.95 -16.89,2.95 0,0 -17.47,-0.51 -24.01,1.69 -2.46,0.82 -26.73,11.05 -27.46,15.34 -0.31,1.82 1.71,5.89 6.73,6.3 8.15,0.67 18.34,-6.43 18.34,-6.43 0.12,-0.2 1.33,-0.54 6.9,-0.54 5.57,0 12.04,3.65 12.45,4.33 4.16,6.85 8.11,11.65 11.92,16.29 2.79,3.39 9.35,12.36 9.35,12.36 0,0 7.37,-8.71 9.25,-10.72 1.88,-2.01 8.85,-7.1 8.85,-7.1 0,0 1.54,-9.96 -0.01,-20.26 z"
         fill="#ffca28"
         id="path4081"
         style="stroke-width:1.69997" /><path
         d="m 26.59,85.83 c 0,0 -2.66,0.94 -5.09,-2.55 -2.43,-3.49 -0.4,-5.89 2.08,-7.84 2.48,-1.95 5.76,-2.89 7.71,-1.41 1.94,1.47 2.75,4.02 2.75,4.02 0,0 4.02,-3.28 7.64,-1.27 3.62,2.01 3.39,5.67 3.39,5.67 0,0 3.51,-2.13 7.2,0 3.69,2.13 1.88,8.27 1.88,8.27 0,0 4.29,0.13 5.09,4.36 0.8,4.22 -0.2,8.71 -5.03,9.52 -4.82,0.8 -7.64,-3.72 -7.64,-3.72 0,0 -4.82,2.91 -8.38,0.51 -3.56,-2.4 -3.15,-7.44 -3.15,-7.44 0,0 -4.35,0.72 -6.8,-1.56 -2.45,-2.28 -1.65,-6.56 -1.65,-6.56 z"
         fill="#ffca28"
         id="path4083"
         style="stroke-width:1.69997" /><path
         d="m 60.29,101.26 c 1.22,-2.26 1.52,-4.86 0.72,-7 -0.58,-1.56 -1.97,-3.52 -5.21,-4.47 0.03,-0.06 0.06,-0.11 0.09,-0.16 L 55.8,89.58 c 0.43,-1.31 0.53,-2.56 0.33,-4.06 -0.32,-2.36 -1.68,-4.13 -3.83,-4.96 -1.82,-0.71 -4.02,-0.65 -5.78,0.07 -0.19,-2.05 -1.17,-3.51 -3.06,-4.66 -3.78,-2.3 -6.6,-0.8 -8.33,0.2 -0.77,-2.21 -2.68,-3.3 -3.89,-3.79 -1.44,-0.58 -4.96,-1.33 -9.15,2.41 l 2.14,1.96 c 2.89,-2.46 5.05,-2.06 5.94,-1.7 2.3,0.92 2.22,2.63 2.21,3.42 -0.01,0.78 -0.13,1.61 -2.04,3.38 -2.36,2.19 -4.03,2.2 -4.03,2.2 -1.69,0.2 -3.2,-1.08 -3.89,-2.35 -0.24,-0.45 -0.95,-1.99 -0.01,-3.1 0.22,-0.25 0.67,-0.95 2.2,-2.15 l -2.11,-2 c -0.92,0.76 -2.07,2.04 -2.29,2.29 -1.41,1.66 -1.53,4.09 -0.32,6.33 1,1.87 3.02,3.63 5.49,3.87 -0.18,2.4 0.67,4.62 2.48,6.37 1.94,1.88 4.35,2.08 6.03,1.93 0.02,1.68 0.39,4.04 2.03,5.73 3.26,3.35 7.33,2.5 9.97,1.09 0.95,1.93 2.66,3.31 4.83,3.82 0.61,0.14 1.23,0.21 1.84,0.21 2.28,0 5.23,0 8.13,-5.67 -0.9,-0.56 -1.76,-1 -2.52,-1.45 -2.21,4.38 -5.14,4.49 -6.8,4.1 -1.51,-0.36 -2.62,-1.38 -3.13,-2.85 2.41,-2.7 4.11,-4.83 6,-7.84 2.14,0.45 3.51,1.42 4.06,2.9 0.48,1.29 0.29,2.95 -0.45,4.43 z M 34.97,92.08 c -0.03,0.01 -3.11,1.07 -5.11,-0.86 -1.33,-1.29 -1.85,-2.85 -1.54,-4.63 3.62,-2.57 6.75,-6.59 7.4,-7.46 0.23,-0.12 3.3,-2.55 6.24,-0.71 1.36,0.85 1.91,2.81 1.63,4.19 -0.28,1.38 -0.92,3.05 -3.56,5.87 -2.58,2.75 -5.06,3.6 -5.06,3.6 z m 17.77,-2.57 c -0.67,1.32 -2.75,5.7 -7.07,9.26 -0.49,0.4 -4.62,3.3 -7.68,0.16 -1.1,-1.13 -1.27,-3.07 -1.21,-4.33 2.05,-1.61 6.13,-5.21 9.29,-10.36 1.23,-1.39 3.62,-1.62 5.19,-1.01 1.16,0.45 1.84,1.34 2.01,2.66 0.17,1.22 0.14,2.3 -0.53,3.62 z"
         fill="#d69513"
         id="path4085"
         style="stroke-width:1.69997" /><path
         d="m 78.35,103.68 c -0.96,0 -1.9,-0.15 -2.78,-0.46 -2.26,-0.79 -11.01,-7.45 -12.51,-9.76 -0.43,-0.67 -0.24,-1.56 0.42,-1.99 0.67,-0.43 1.56,-0.24 1.99,0.42 1.04,1.6 9.2,7.96 11.05,8.61 1.66,0.58 3.79,0.28 5.41,-0.76 1.03,-0.67 2.31,-1.93 2.5,-4.14 0.07,-0.79 0.77,-1.38 1.56,-1.31 0.79,0.07 1.38,0.77 1.31,1.56 -0.23,2.63 -1.58,4.87 -3.8,6.31 -1.54,1 -3.37,1.52 -5.15,1.52 z"
         fill="#d69513"
         id="path4087"
         style="stroke-width:1.69997" /><path
         d="m 88.84,97.16 c -1.97,0 -4.09,-0.62 -6.65,-1.93 -3.15,-1.6 -7.3,-5.71 -10.33,-8.7 -0.61,-0.6 -1.16,-1.15 -1.63,-1.6 -0.57,-0.55 -0.59,-1.46 -0.04,-2.04 0.55,-0.58 1.46,-0.59 2.04,-0.04 0.48,0.46 1.04,1.01 1.66,1.63 2.73,2.7 6.86,6.78 9.61,8.18 3.47,1.77 5.25,1.75 6.55,1.5 2.38,-0.47 3.86,-2.7 3.85,-5.84 0,-0.8 0.64,-1.44 1.44,-1.44 0,0 0,0 0,0 0.79,0 1.44,0.64 1.44,1.44 0.01,4.53 -2.42,7.94 -6.18,8.68 -0.58,0.11 -1.17,0.16 -1.76,0.16 z"
         fill="#d69513"
         id="path4089"
         style="stroke-width:1.69997" /><path
         d="m 97.11,90.09 c -0.77,0 -1.55,-0.13 -2.3,-0.42 -4.05,-1.58 -9.45,-6.56 -16.51,-15.23 -0.5,-0.62 -0.41,-1.53 0.21,-2.03 0.62,-0.5 1.53,-0.41 2.03,0.21 6.64,8.16 11.79,12.99 15.32,14.36 1.77,0.69 4.4,-0.31 5.98,-2.27 0.74,-0.92 1.8,-2.75 0.52,-4.7 -2.83,-4.31 -5.69,-7.79 -8.72,-11.47 -3.88,-4.72 -7.89,-9.6 -12.16,-16.62 -0.41,-0.68 -0.2,-1.57 0.48,-1.98 0.68,-0.41 1.57,-0.2 1.98,0.48 4.16,6.85 8.11,11.65 11.92,16.29 3.08,3.74 5.98,7.28 8.9,11.72 1.65,2.5 1.39,5.53 -0.69,8.1 -1.6,1.97 -4.27,3.56 -6.96,3.56 z"
         fill="#d69513"
         id="path4091"
         style="stroke-width:1.69997" /><path
         d="m 99.62,58.85 c -0.06,0 -0.11,0 -0.17,-0.01 -10.58,-1.23 -15.89,-5.33 -19.4,-8.04 -1.73,-1.33 -3.09,-2.39 -4.39,-2.58 -3.68,-0.56 -7.32,-0.96 -11.24,0.18 -0.37,0.11 -1.47,0.63 -2.65,1.19 -3.61,1.71 -9.06,4.3 -13.07,4.72 -3.12,0.33 -5.91,-0.46 -7.86,-2.21 -1.58,-1.42 -2.48,-3.38 -2.48,-5.38 0,-3.51 4.44,-5.58 7.37,-6.94 1.61,-0.75 3.8,-1.98 6.11,-3.28 4.04,-2.27 8.62,-4.85 11.98,-5.91 5.52,-1.74 20.07,-2.26 24.73,-2.31 10.45,-0.1 19.04,-3.03 25.57,-6.39 0.27,-0.14 1.46,-0.76 2.5,-0.5 1.45,0.36 1.81,1.45 1.81,1.45 -7.13,4.25 -16.87,8.21 -29.84,8.34 -5.72,0.05 -19.08,0.66 -23.88,2.17 -3.08,0.97 -7.52,3.47 -11.44,5.68 -2.36,1.33 -4.59,2.59 -6.31,3.38 -1.71,0.79 -5.71,2.65 -5.71,4.33 0,1.18 0.56,2.36 1.52,3.24 1.33,1.2 3.34,1.73 5.63,1.49 3.52,-0.37 8.91,-2.93 12.14,-4.46 1.63,-0.78 2.51,-1.19 3.08,-1.35 4.85,-1.42 9.44,-0.73 12.47,-0.27 2.03,0.31 3.74,1.63 5.72,3.15 3.46,2.67 8.19,6.32 17.98,7.46 0.79,0.09 1.36,0.81 1.27,1.6 -0.09,0.71 -0.71,1.25 -1.44,1.25 z"
         fill="#d69513"
         id="path4093"
         style="stroke-width:1.69997" /><path
         d="m 104.63,78.24 -1.47,-2.16 c 1.12,0.6 3.67,0.14 6.9,-4.41 2.05,-2.89 5.88,-8.72 13.16,-11.75 0,0 0.55,2.76 -1.09,3.88 -4.94,3.4 -8.05,7.18 -9.72,9.54 -2.74,3.87 -5.26,6.19 -6.7,7.35 0,0 -0.18,-1.16 -1.08,-2.45 z"
         fill="#d69513"
         id="path4095"
         style="stroke-width:1.69997" /><path
         d="m 68.22,106.68 c -3.59,0 -7.06,-1.88 -8.81,-2.83 -0.29,-0.16 -0.54,-0.29 -0.75,-0.4 l 2.13,-4.86 c 0,0 0.52,2.9 2.72,4.04 3.62,1.89 6.87,2.16 9.51,-1.34 l 2.3,1.74 c -2.07,2.75 -4.62,3.65 -7.1,3.65 z"
         fill="#d69513"
         id="path4097"
         style="stroke-width:1.69997" /><path
         d="M 20.67,77.56 C 17.37,74.08 13.32,70.78 8.86,67.9 8.64,67.76 7.43,66.98 6.84,65.93 5.92,64.3 6.14,62.91 6.14,62.91 c 6.33,3.52 12.13,7.93 16.62,12.67 z"
         fill="#d69513"
         id="path4099"
         style="stroke-width:1.69997" /><path
         d="m 39.59,34.35 c -11.86,0 -22.81,-4.54 -30.68,-9.82 0,0 0.41,-0.83 1.19,-1.18 1.09,-0.49 1.93,-0.22 2.05,-0.15 7.31,4.54 17,8.26 27.43,8.26 0.02,0 0.04,0 0.07,0 2.99,0 7.01,-1.2 9.41,-1.91 0.45,-0.13 0.85,-0.25 1.2,-0.35 5.9,-1.67 12.25,-1.65 21.23,0.05 l -0.54,2.83 c -8.51,-1.61 -14.47,-1.64 -19.91,-0.11 -0.33,0.09 -0.72,0.21 -1.16,0.34 -2.55,0.76 -6.82,2.03 -10.22,2.03 -0.02,0.01 -0.05,0.01 -0.07,0.01 z"
         fill="#d69513"
         id="path4101"
         style="stroke-width:1.69997" /><path
         d="m 92.67,62.79 c 0,0 -0.8,-2.11 0.54,-3.3 1.57,-1.4 3.33,-0.9 4.55,-0.88 0,0 -2.37,-0.62 -5.39,-1.83 -3.75,-1.51 -6.33,-3.38 -6.33,-3.38 0,0 0.67,1.34 2.75,4.49 2.07,3.15 3.88,4.9 3.88,4.9 z"
         fill="#d69513"
         id="path4103"
         style="stroke-width:1.69997" /></g><g
       id="g4414"
       transform="matrix(0.16515277,0,0,0.16515277,74.460263,132.43023)"
       style="stroke-width:1.60205"><path
         id="hair_10_"
         d="m 53.12,3.45 c -41.01,0 -40.68,37.92 -40.68,38.52 0,24.56 1.88,59.25 11.71,72.9 3.9,5.41 11.43,5.71 11.43,5.71 l 16.97,-0.03 16.97,0.03 c 0,0 7.54,-0.3 11.43,-5.71 9.83,-13.65 11.71,-48.34 11.71,-72.9 0,-0.6 1.47,-38.52 -39.54,-38.52 z"
         fill="#543930"
         style="stroke-width:2.56657" /><path
         id="hairHighlights_1_"
         d="m 53.12,3.45 c -41.01,0 -40.68,37.92 -40.68,38.52 0,24.56 1.88,59.25 11.71,72.9 3.9,5.41 11.43,5.71 11.43,5.71 l 16.97,-0.03 16.97,0.03 c 0,0 7.54,-0.3 11.43,-5.71 9.83,-13.65 11.71,-48.34 11.71,-72.9 0,-0.6 1.47,-38.52 -39.54,-38.52 z"
         fill="url(#hairHighlights_2_)"
         style="fill:url(#hairHighlights_2_);stroke-width:1.60205" /><path
         d="M 51.92,96.45 C 28.3,96.52 3.81,103.78 3.81,121.5 v 3.04 h 96.23 v -3.04 c 0,-17.72 -24.5,-24.98 -48.12,-25.05 z"
         fill="url(#SVGID_1_)"
         id="path4246"
         style="fill:url(#SVGID_1_-6);stroke-width:1.60205" /><path
         d="m 90.03,105.14 -5.82,19.41 h 15.83 v -3.04 c 0,-7.05 -3.87,-12.43 -10.01,-16.37 z"
         fill="url(#SVGID_2_)"
         id="path4248"
         style="fill:url(#SVGID_2_-7);stroke-width:1.60205" /><path
         d="m 52,92.53 h -9.08 v 9.98 c 0,4.51 3.7,8.17 8.26,8.17 h 1.65 c 4.56,0 8.26,-3.66 8.26,-8.17 v -9.98 z"
         fill="#e59600"
         id="path4250"
         style="stroke-width:2.56657" /><path
         d="M 62.78,105.7 H 41.64 l 2.42,18.85 h 16.56 z"
         fill="url(#SVGID_3_)"
         id="path4252"
         style="fill:url(#SVGID_3_-5);stroke-width:1.60205" /><path
         d="m 43.05,96.77 c -5.92,0.43 -8.69,0.94 -8.69,0.94 l -3.13,7.3 5.25,4.39 -4.88,6.15 7.12,9 h 7.38 z"
         fill="url(#SVGID_4_)"
         id="path4254"
         style="fill:url(#SVGID_4_-3);stroke-width:1.60205" /><path
         d="m 61.22,96.77 c 5.92,0.43 8.69,0.94 8.69,0.94 l 3.13,7.3 -5.25,4.39 4.88,6.15 -7.12,9 h -7.38 z"
         fill="url(#SVGID_5_)"
         id="path4256"
         style="fill:url(#SVGID_5_-5);stroke-width:1.60205" /><path
         d="m 122.32,74.01 c 1.14,7.79 -0.11,16.87 -0.11,16.87 l -10.26,-0.9 c 0,0 -0.39,-5.91 0,-5.92 z"
         fill="#80cbc4"
         id="path4258"
         style="stroke-width:2.56657" /><path
         d="m 111.99,88.35 c -6.66,-0.81 -9.59,-1.6 -9.59,-1.6 l -11.34,37.8 h 28.19 l 4.14,-36.21 c 0,0 -3.15,1.01 -11.4,0.01 z"
         fill="url(#SVGID_6_)"
         id="path4260"
         style="fill:url(#SVGID_6_-6);stroke-width:1.60205" /><path
         d="m 110.49,113.13 c -2.27,1.4 -9.11,0.12 -15.75,-2.25 -5.12,-1.83 -9.23,-4.16 -9.27,-4.17 -0.53,-0.25 -5.5,-2.95 -5.5,-5.74 0,-2.32 1.96,-3.89 2.44,-4.43 0.07,-0.07 0.1,-0.1 0.1,-0.1 l 17.46,-17.59 13.14,-31.8 0.02,-0.01 c 0,0 2.36,-0.81 5.67,0.49 3.31,1.3 5.01,3.46 5.01,3.46 L 123.79,51 111.94,83.62 c 0,0 0.03,23.38 0,25.39 -0.04,2.72 -0.36,3.45 -1.45,4.12 z"
         fill="url(#SVGID_7_)"
         opacity="0.86"
         id="path4262"
         style="fill:url(#SVGID_7_-2);stroke-width:2.56657" /><path
         d="m 106.89,111.57 c -5.64,-2.2 -17.38,-6.85 -23.03,-9.14 -1.53,-0.63 -1.93,-2.6 -0.77,-3.77 l 7.43,-7.49 19.51,-0.94 v 19.19 c 0.01,1.62 -1.62,2.74 -3.14,2.15 z"
         fill="url(#SVGID_8_)"
         opacity="0.8"
         id="path4264"
         style="fill:url(#SVGID_8_-9);stroke-width:2.56657" /><path
         d="m 96.849,100.281 0.772,-1.845 6.273,2.626 -0.773,1.845 z"
         fill="#ffffff"
         id="path4266"
         style="stroke-width:2.56657" /><path
         d="m 98.864,94.837 0.772,-1.845 6.273,2.626 -0.773,1.845 z"
         fill="#ffffff"
         id="path4268"
         style="stroke-width:2.56657" /><path
         d="m 100.898,89.397 0.772,-1.844 6.272,2.626 -0.772,1.845 z"
         fill="#ffffff"
         id="path4270"
         style="stroke-width:2.56657" /><path
         d="m 102.92,83.961 0.772,-1.845 6.272,2.626 -0.772,1.845 z"
         fill="#ffffff"
         id="path4272"
         style="stroke-width:2.56657" /><path
         d="m 104.934,78.516 0.773,-1.844 6.272,2.626 -0.773,1.845 z"
         fill="#ffffff"
         id="path4274"
         style="stroke-width:2.56657" /><path
         d="m 106.955,73.083 0.772,-1.845 6.272,2.626 -0.772,1.845 z"
         fill="#ffffff"
         id="path4276"
         style="stroke-width:2.56657" /><path
         d="m 108.978,67.644 0.772,-1.845 6.273,2.625 -0.773,1.845 z"
         fill="#ffffff"
         id="path4278"
         style="stroke-width:2.56657" /><path
         d="m 111.483,61.319 0.772,-1.845 6.273,2.626 -0.773,1.844 z"
         fill="#ffffff"
         id="path4280"
         style="stroke-width:2.56657" /><path
         d="m 113.508,55.876 0.772,-1.845 6.273,2.625 -0.772,1.845 z"
         fill="#ffffff"
         id="path4282"
         style="stroke-width:2.56657" /><path
         d="m 98.74,80.1 c 0,0 -2.53,-2.14 -2.52,-4.09 0.01,-1.56 1.89,-3.04 1.89,-3.04 0,0 -1.8,-2.77 -1.14,-4.28 0.94,-2.14 3.41,-2.55 3.41,-2.55 0,0 -1.12,-2.79 0.65,-4.43 1.26,-1.17 4.9,-0.68 4.9,-0.68 0,0 0.36,-4.58 4.82,-3.43 1.74,0.45 7.91,3.99 10.21,11.46 1.44,4.67 2,6.06 1.54,13.06 -0.2,2.97 -7.71,2.97 -10.54,1.95 -7.05,-2.54 -9.05,-5.64 -10.02,-5.62 -0.98,0.01 -3.2,1.65 -3.2,1.65 z"
         fill="#80cbc4"
         id="path4284"
         style="stroke-width:2.56657" /><path
         d="m 99.61,71.23 c -0.72,0.13 -1.28,0.71 -1.44,1.43 l -0.07,0.31 4.18,-1.43 c -0.98,-0.46 -1.95,-0.44 -2.67,-0.31 z"
         fill="#26a69a"
         id="path4286"
         style="stroke-width:2.56657" /><path
         d="m 104.69,66.42 c -0.57,-0.63 -1.23,-0.99 -1.82,-1.2 -0.94,-0.33 -1.98,0.07 -2.5,0.92 v 0 z"
         fill="#26a69a"
         id="path4288"
         style="stroke-width:2.56657" /><path
         d="m 107.98,60.37 c -0.73,-0.29 -1.6,-0.07 -2.04,0.58 -0.01,0.02 -0.02,0.04 -0.03,0.05 1.78,0.22 4.45,1.34 4.45,1.34 -0.54,-1.06 -1.56,-1.65 -2.38,-1.97 z"
         fill="#26a69a"
         id="path4290"
         style="stroke-width:2.56657" /><path
         d="m 97.207,102.53 c 7.414,2.923 12.874,6.688 12.195,8.409 -0.678,1.722 -7.239,0.747 -14.653,-2.176 -7.414,-2.923 -12.874,-6.688 -12.195,-8.409 0.679,-1.722 7.239,-0.747 14.653,2.176 z"
         fill="#8f5d9b"
         id="path4292"
         style="stroke-width:2.56657" /><path
         d="m 119.507,46.469 c 2.944,1.16 4.825,3.387 4.199,4.975 -0.625,1.588 -3.519,1.935 -6.464,0.776 -2.944,-1.16 -4.825,-3.387 -4.199,-4.975 0.625,-1.588 3.519,-1.935 6.464,-0.776 z"
         fill="#81d4fa"
         id="path4294"
         style="stroke-width:2.56657" /><path
         d="m 52.11,16.04 v 0 0 c -17.2,0 -33.13,12.79 -33.13,39.91 0,21.78 13.49,34.67 25.23,38.83 2.8,0.99 5.5,1.49 7.9,1.49 2.38,0 5.07,-0.49 7.85,-1.47 C 71.72,90.66 85.24,77.77 85.24,55.96 85.24,28.83 69.31,16.04 52.11,16.04 Z"
         fill="#ffca28"
         id="path4296"
         style="stroke-width:2.56657" /><path
         id="nose"
         d="m 55.86,68.26 c -0.11,-0.04 -0.21,-0.07 -0.32,-0.08 h -7.08 c -0.11,0.01 -0.22,0.04 -0.32,0.08 -0.64,0.26 -0.99,0.92 -0.69,1.63 0.3,0.71 1.71,2.69 4.55,2.69 2.84,0 4.25,-1.99 4.55,-2.69 0.3,-0.7 -0.05,-1.37 -0.69,-1.63 z"
         fill="#e59600"
         style="stroke-width:2.56657" /><path
         id="mouth"
         d="m 60.53,76.35 c -3.19,1.89 -13.63,1.89 -16.81,0 -1.83,-1.09 -3.7,0.58 -2.94,2.24 0.75,1.63 6.44,5.42 11.37,5.42 4.93,0 10.55,-3.79 11.3,-5.42 0.75,-1.67 -1.09,-3.33 -2.92,-2.24 z"
         fill="#795548"
         style="stroke-width:2.56657" /><path
         d="m 43.77,49.97 c -0.93,-1.23 -3.07,-3.01 -7.23,-3.01 -4.16,0 -6.31,1.79 -7.23,3.01 -0.41,0.54 -0.31,1.17 -0.02,1.55 0.26,0.35 1.04,0.68 1.9,0.39 0.86,-0.29 2.54,-1.16 5.35,-1.18 2.81,0.02 4.49,0.89 5.35,1.18 0.86,0.29 1.64,-0.03 1.9,-0.39 0.29,-0.37 0.39,-1 -0.02,-1.55 z"
         fill="#6d4c41"
         id="path4300"
         style="stroke-width:2.56657" /><path
         d="m 74.92,49.97 c -0.93,-1.23 -3.07,-3.01 -7.23,-3.01 -4.16,0 -6.31,1.79 -7.23,3.01 -0.41,0.54 -0.31,1.17 -0.02,1.55 0.26,0.35 1.04,0.68 1.9,0.39 0.86,-0.29 2.54,-1.16 5.35,-1.18 2.81,0.02 4.49,0.89 5.35,1.18 0.86,0.29 1.64,-0.03 1.9,-0.39 0.28,-0.37 0.38,-1 -0.02,-1.55 z"
         fill="#6d4c41"
         id="path4302"
         style="stroke-width:2.56657" /><path
         d="m 41.47,59.02 a 4.93,5.1 0 1 1 -9.86,0 4.93,5.1 0 1 1 9.86,0 z"
         fill="#404040"
         id="path4304"
         style="stroke-width:2.56657" /><path
         d="m 72.61,59.02 a 4.93,5.1 0 1 1 -9.86,0 4.93,5.1 0 1 1 9.86,0 z"
         fill="#404040"
         id="path4306"
         style="stroke-width:2.56657" /><path
         d="m 31.1,44.31 h 42.65 l 5.79,5.1 v 15.03 c 0,0 -3.94,5.5 -13.44,3.19 -9.5,-2.31 -8.23,-8.05 -13.88,-8.05 -5.65,0 -8.25,9.17 -20.62,8.92 0,0 -6.38,-0.56 -7.56,-4.56 L 23.77,47.33 Z"
         fill="url(#SVGID_9_)"
         id="path4308"
         style="fill:url(#SVGID_9_-1);stroke-width:1.60205" /><path
         d="m 88.28,54.76 c 0.01,0.67 -0.19,1.32 -0.57,1.87 l -5.47,8.05 c -2.06,2.85 -9.3,4.43 -9.3,4.43 l 8.18,-9.14 -1.56,-11.5 -7.43,-5.8 c 0,0 3.07,0.3 5.24,0.3 2.17,0 4.33,1.39 5.44,2.16 l 4.02,2.77 c 0.88,0.61 1.4,1.6 1.41,2.67 z"
         fill="url(#SVGID_10_)"
         id="path4310"
         style="fill:url(#SVGID_10_-2);stroke-width:1.60205" /><path
         d="m 15.97,54.76 c -0.01,0.67 0.19,1.32 0.57,1.87 L 22,64.68 c 2.06,2.85 9.3,4.43 9.3,4.43 l -8.18,-9.14 1.56,-11.5 7.43,-5.8 c 0,0 -3.07,0.3 -5.24,0.3 -2.17,0 -4.33,1.39 -5.44,2.16 l -4.02,2.77 c -0.88,0.61 -1.4,1.6 -1.41,2.67 z"
         fill="url(#SVGID_11_)"
         id="path4312"
         style="fill:url(#SVGID_11_-7);stroke-width:1.60205" /><path
         d="m 71.58,45.63 c 1.1,0 2.93,0.35 4.48,1.34 2.1,1.34 2.16,2.89 2.18,3.4 0.03,0.77 0.06,1.51 0.1,2.25 0.1,2.31 0.2,4.49 0.2,6.61 0,4.35 -3.91,7.38 -9.5,7.38 -3.95,0 -8.42,-3.33 -10.46,-5.57 -1.6,-1.75 -3.96,-2.76 -6.48,-2.76 -2.52,0 -4.88,1.01 -6.48,2.76 -2.04,2.24 -6.51,5.57 -10.46,5.57 -5.59,0 -9.5,-3.03 -9.5,-7.38 0,-2.13 0.1,-4.31 0.2,-6.61 0.03,-0.74 0.07,-1.49 0.1,-2.25 0.02,-0.51 0.08,-2.06 2.18,-3.4 1.55,-0.99 3.38,-1.34 4.48,-1.34 h 38.96 m 0,-3 H 32.64 c -3.58,0 -9.44,2.3 -9.66,7.62 -0.13,3.2 -0.3,6.1 -0.3,8.99 0,6 5.21,10.38 12.5,10.38 5,0 10.15,-3.78 12.67,-6.55 1.08,-1.18 2.67,-1.78 4.26,-1.78 1.59,0 3.19,0.6 4.26,1.78 2.53,2.77 7.67,6.55 12.67,6.55 7.29,0 12.5,-4.38 12.5,-10.38 0,-2.88 -0.17,-5.79 -0.3,-8.99 -0.21,-5.32 -6.07,-7.62 -9.66,-7.62 z"
         fill="url(#SVGID_12_)"
         id="path4314"
         style="fill:url(#SVGID_12_-0);stroke-width:1.60205" /><path
         id="hair_5_"
         d="m 53.12,3.45 c -41.01,0 -40.68,37.92 -40.68,38.52 0,7.76 0.19,16.53 0.75,25.32 l 6.72,-0.02 C 19.85,64.35 21.9,46.3 27.99,44.93 50.35,39.9 63,28.04 63,28.04 c 3.29,7.18 13.58,14.19 17.27,16.86 3.03,2.19 3.96,18.55 3.9,22.38 h 7.71 c 0,-0.05 0.02,-0.1 0.02,-0.16 0.56,-8.75 0.74,-17.46 0.74,-25.17 0.02,-0.58 1.49,-38.5 -39.52,-38.5 z"
         fill="#543930"
         style="stroke-width:2.56657" /><path
         id="hairHighlights"
         d="m 53.12,3.45 c -41.01,0 -40.68,37.92 -40.68,38.52 0,7.76 0.19,16.53 0.75,25.32 l 6.72,-0.02 C 19.85,64.35 21.9,46.3 27.99,44.93 50.35,39.9 63,28.04 63,28.04 c 3.29,7.18 13.58,14.19 17.27,16.86 3.03,2.19 3.96,18.55 3.9,22.38 h 7.71 c 0,-0.05 0.02,-0.1 0.02,-0.16 0.56,-8.75 0.74,-17.46 0.74,-25.17 0.02,-0.58 1.49,-38.5 -39.52,-38.5 z"
         fill="url(#hairHighlights_3_)"
         style="fill:url(#hairHighlights_3_);stroke-width:1.60205" /></g><g
       id="g4528"
       transform="matrix(0.16974755,0,0,0.16974755,99.142071,131.96632)"
       style="stroke-width:1.55869"><path
         d="M 118.03,102.32 72.29,123 c -2.82,1.33 -5.76,1.2 -8.46,-0.36 L 6.09,93.32 C 4.44,92.26 3.95,90.71 4.05,89.63 4.15,88.55 4.4,87.38 7.3,86.54 l 4.28,-1.58 57.92,31.57 41.16,-16.82 z"
         fill="#01579b"
         id="path4446"
         style="stroke-width:2.42951" /><path
         d="m 71.74,119.69 c -2.32,1.09 -5.03,0.99 -7.26,-0.26 L 8.11,91.03 C 7.31,90.59 7.07,89.58 7.55,88.8 8.79,86.75 11.07,80.27 7.31,74.89 l 63.66,30.65 z"
         fill="#f5f5f5"
         id="path4448"
         style="stroke-width:2.42951" /><path
         d="m 115.59,99.98 c 0,0 -43.83,19.7 -43.85,19.71 -1.45,0.63 -4.34,1.75 -7.67,-0.49 2.63,0.19 4.48,-0.9 5.43,-2.67 0.93,-1.72 0.65,-4.54 -0.48,-6.13 -0.69,-0.96 -2.54,-2.49 -3.35,-3.35 L 113.1,88.5 c 4.2,-1.73 8.14,0.86 8.77,4.01 0.7,3.56 -3.84,6.47 -6.28,7.47 z"
         fill="#94c6d6"
         id="path4450"
         style="stroke-width:2.42951" /><path
         d="m 117.78,86.96 -45.27,20.2 c -2.85,1.13 -6.04,0.98 -8.77,-0.4 L 5.9,77.38 C 5.34,77.1 4.51,76.33 4.18,75.28 3.64,73.53 4.32,71.33 6.37,70.63 l 62.68,31.95 42.92,-18.37 z"
         fill="#01579b"
         id="path4452"
         style="stroke-width:2.42951" /><path
         d="m 121.19,89.89 -4.93,-1.79 -10.16,0.59 -33.58,14.99 c -2.85,1.13 -6.04,0.98 -8.77,-0.4 L 5.9,73.91 C 4.41,73.15 4.73,70.94 6.37,70.63 L 48.06,51.98 c 1.19,-0.22 2.41,-0.09 3.52,0.38 l 59.49,28.36 c 0,0 9.45,6.47 10.12,9.17 z"
         fill="#0091ea"
         id="path4454"
         style="stroke-width:2.42951" /><path
         d="m 105.53,88.98 c 0,0 6.26,-2.45 11.18,-2.23 4.92,0.22 6.63,3.67 6.63,3.67 -0.93,-4.23 -5.3,-6.39 -5.3,-6.39 l -65,-32.73 c -0.45,-0.19 -2.11,-0.58 -4.66,0.47 -2.06,0.85 -8.79,4 -8.79,4 z"
         fill="#616161"
         id="path4456"
         style="stroke-width:2.42951" /><path
         d="m 123.62,91.22 c -0.47,-1.87 -1.63,-3.87 -3.77,-4.84 -2.82,-1.27 -6.84,-0.94 -9.41,0.4 l -4.91,2.18 v 3.46 l 6.21,-2.76 c 6.04,-2.69 8.72,1.34 8.95,2.29 0.96,3.87 -0.9,6.11 -6.39,8.63 l -8.92,4.02 v 3.48 l 10.26,-4.57 c 4.54,-1.82 9.72,-5.24 7.98,-12.29 z"
         fill="#424242"
         id="path4458"
         style="stroke-width:2.42951" /><path
         d="M 33.01,90.31 15.74,66.44 18.45,65.23 37.88,91.93 Z"
         fill="#01579b"
         id="path4460"
         style="stroke-width:2.42951" /><path
         d="m 55.16,101.31 -3.08,-2.44 53.45,-10.91 v 1.75 l -7.49,2.84 z"
         fill="#01579b"
         id="path4462"
         style="stroke-width:2.42951" /><path
         d="M 14.8,46.18 82.31,34.9 111.8,67.37 c 1.49,1.57 0.68,4.17 -1.44,4.6 l -69.7,14.3 z"
         fill="#9ccc65"
         id="path4464"
         style="stroke-width:2.42951" /><path
         d="m 110.36,69.17 -69.22,14.02 -0.22,3.3 69.44,-14.24 c 1.96,-0.41 2.78,-2.65 1.71,-4.23 -0.38,0.56 -0.96,1 -1.71,1.15 z"
         fill="#689f38"
         id="path4466"
         style="stroke-width:2.42951" /><path
         d="m 114.09,84.3 c 0.73,1.16 0.07,2.69 -1.27,2.96 L 49.1,100.18 c -3.83,0.79 -7.59,-1.72 -7.93,-5.62 v 0 c -0.29,-3.3 1.94,-6.29 5.19,-6.97 l 61.28,-13.76 z"
         fill="#689f38"
         id="path4468"
         style="stroke-width:2.42951" /><path
         d="M 55.59,80.1 30.21,43.78 15.73,47.61 c -3.35,3.33 -2.1,8.8 -2.1,8.8 0,0 22.17,35.58 25.67,40.13 3.5,4.55 8.61,3.84 8.61,3.84 l 8.63,-1.74 -0.9,-16.1 z"
         fill="#616161"
         id="path4470"
         style="stroke-width:2.42951" /><path
         d="M 55.59,80.34 43.4,82.86 c -3.33,0.75 -3.93,3.88 -3.93,3.88 L 10.04,44.57 c 0,0 -4.19,5.07 -1.41,9.38 L 39.3,96.54 c 3.35,4.77 8.61,3.88 8.61,3.88 L 56.54,98.68 55.65,82.9 Z"
         fill="#424242"
         id="path4472"
         style="stroke-width:2.42951" /><path
         d="m 110.25,83 c 0.31,0.68 -0.09,1.47 -0.82,1.62 L 48.5,97.12 c -3.83,0.79 -6.54,-1.75 -6.4,-5.21 0.18,-4.37 2.63,-6.22 5.87,-6.89 L 109.2,72.51 c 0,0 -2.08,2.34 -0.49,6.72 0.54,1.51 1.12,2.85 1.54,3.77 z"
         fill="#b9e4ea"
         id="path4474"
         style="stroke-width:2.42951" /><path
         d="m 44.364,84.298 -26.11,-36.94 1.692,-1.196 26.11,36.94 z"
         fill="#424242"
         id="path4476"
         style="stroke-width:2.42951" /><path
         d="M 47.26,67.95 13.68,51.03 12.32,53.71 51.12,73.48 Z"
         fill="#424242"
         id="path4478"
         style="stroke-width:2.42951" /><path
         d="m 108.79,64.03 -2.46,-2.7 -37.83,17.36 -21.24,-10.51 3.62,5.18 14.07,7.19 10.48,-1.61 z"
         fill="#689f38"
         id="path4480"
         style="stroke-width:2.42951" /><path
         d="M 118.02,57.35 72.29,78.03 c -2.82,1.33 -5.76,1.2 -8.46,-0.36 L 6.09,48.35 C 4.44,47.29 3.95,45.74 4.05,44.66 4.15,43.58 4.4,42.41 7.3,41.57 l 2.71,-1 59.32,29.11 48.17,-19.93 z"
         fill="#c62828"
         id="path4482"
         style="stroke-width:2.42951" /><path
         d="m 71.73,74.72 c -2.32,1.09 -5.03,0.99 -7.26,-0.26 L 8.1,46.06 C 7.3,45.62 7.06,44.61 7.54,43.83 8.78,41.78 11.06,35.3 7.3,29.92 l 62.24,31.66 z"
         fill="#f5f5f5"
         id="path4484"
         style="stroke-width:2.42951" /><path
         d="m 115.58,55.01 c 0,0 -43.83,19.7 -43.85,19.71 -1.45,0.63 -4.34,1.75 -7.67,-0.49 2.63,0.19 4.48,-0.9 5.43,-2.67 0.93,-1.72 0.65,-4.54 -0.48,-6.13 -0.69,-0.96 -2.54,-2.49 -3.35,-3.35 l 47.43,-18.55 c 4.2,-1.73 8.14,0.86 8.77,4.01 0.7,3.56 -3.84,6.47 -6.28,7.47 z"
         fill="#94c6d6"
         id="path4486"
         style="stroke-width:2.42951" /><path
         d="m 117.78,41.99 -45.27,20.2 c -2.85,1.13 -6.04,0.98 -8.77,-0.4 L 5.89,32.41 C 5.29,32.11 4.39,31.34 4.1,30.25 3.67,28.63 4.23,26.5 6.36,25.66 L 59.37,14.43 Z"
         fill="#c62828"
         id="path4488"
         style="stroke-width:2.42951" /><path
         d="m 121.18,44.92 -4.93,-1.79 -10.16,0.59 -33.58,14.99 c -2.85,1.13 -6.04,0.98 -8.77,-0.4 L 5.89,28.93 C 4.4,28.17 4.93,26.16 6.36,25.65 L 48.06,7.01 c 1.19,-0.22 2.41,-0.09 3.52,0.38 l 59.49,28.36 c 0,0 9.44,6.46 10.11,9.17 z"
         fill="#f44336"
         id="path4490"
         style="stroke-width:2.42951" /><path
         d="m 105.53,44 c 0,0 5.21,-1.83 10.13,-1.61 4.92,0.22 7.69,3.05 7.69,3.05 -1.01,-4.52 -5.3,-6.39 -5.3,-6.39 L 53.05,6.32 C 52.6,6.13 50.94,5.74 48.39,6.79 c -2.06,0.85 -8.79,4 -8.79,4 z"
         fill="#616161"
         id="path4492"
         style="stroke-width:2.42951" /><path
         d="M 111.48,41.86 44.97,8.31 l 2.2,-0.99 67.64,33.9 z"
         fill="#424242"
         id="path4494"
         style="stroke-width:2.42951" /><path
         d="m 123.61,46.25 c -0.47,-1.87 -1.26,-3.68 -3.49,-4.62 -2.85,-1.2 -5.45,-1.45 -9.69,0.18 l -4.91,2.18 v 3.46 l 6.21,-2.76 c 3.15,-1.48 7.79,-1.16 8.95,2.29 1.27,3.78 -0.9,6.11 -6.39,8.63 l -8.92,4.02 v 3.48 l 10.26,-4.57 c 4.55,-1.82 9.73,-5.24 7.98,-12.29 z"
         fill="#424242"
         id="path4496"
         style="stroke-width:2.42951" /></g></g><g
     inkscape:label="Text"
     inkscape:groupmode="layer"
     id="g3617"
     transform="translate(0,-98.000002)"
     style="display:inline"
     sodipodi:insensitive="true"><text
       xml:space="preserve"
       style="font-style:normal;font-variant:normal;font-weight:normal;font-stretch:normal;font-size:19.7556px;line-height:1.25;font-family:'Noto Sans';-inkscape-font-specification:'Noto Sans, Normal';font-variant-ligatures:normal;font-variant-caps:normal;font-variant-numeric:normal;font-variant-east-asian:normal;text-align:center;letter-spacing:0px;word-spacing:0px;writing-mode:lr-tb;text-anchor:middle;fill:#000000;fill-opacity:1;stroke:none;stroke-width:0.264583"
       x="70"
       y="123"
       id="text3433"><tspan
         sodipodi:role="line"
         id="tspan3431"
         x="70"
         y="123"
         style="font-style:normal;font-variant:normal;font-weight:normal;font-stretch:normal;font-size:19.7556px;font-family:'Noto Sans';-inkscape-font-specification:'Noto Sans, Normal';font-variant-ligatures:normal;font-variant-caps:normal;font-variant-numeric:normal;font-variant-east-asian:normal;fill:#000000;fill-opacity:1;stroke-width:0.264583">DO disturb</tspan></text></g><inkscape:templateinfo><inkscape:name>default</inkscape:name><inkscape:shortdesc>A5</inkscape:shortdesc><inkscape:date>2023-04-28</inkscape:date></inkscape:templateinfo></svg>
